<svg width="62" height="49" viewBox="0 0 62 49" fill="none" xmlns="http://www.w3.org/2000/svg">
<g clip-path="url(#clip0_63_2)">
<mask id="mask0_63_2" style="mask-type:luminance" maskUnits="userSpaceOnUse" x="0" y="0" width="62" height="49">
<path d="M61.3342 0H0V49H61.3342V0Z" fill="white"/>
</mask>
<g mask="url(#mask0_63_2)">
<path d="M60.5219 28.251C60.558 28.0498 60.5746 27.8438 60.5658 27.6346C60.2568 20.3267 57.3006 16.4432 54.8749 14.4724C53.0388 12.9803 50.5067 12.1917 48.9627 11.8224C50.1705 10.5661 50.9153 8.86174 50.9153 6.98568C50.9153 3.13374 47.7816 0 43.9297 0C40.0777 0 36.9442 3.13374 36.9442 6.98568C36.9442 8.86172 37.689 10.5661 38.8968 11.8224C37.3528 12.1916 34.8206 12.9803 32.9844 14.4724C32.0728 15.2131 31.0863 16.2241 30.1935 17.5855C29.506 16.3175 28.6716 15.2744 27.6844 14.4724C25.9622 13.073 23.9361 12.2687 22.6153 11.8683C23.8491 10.6079 24.6117 8.88454 24.6117 6.98568C24.6117 3.13374 21.478 0 17.626 0C13.7741 0 10.6406 3.13374 10.6406 6.98568C10.6406 8.86172 11.3854 10.5661 12.5931 11.8224C11.0492 12.1916 8.51696 12.9803 6.6808 14.4724C4.25533 16.4432 1.29913 20.3265 0.989924 27.6344C0.980582 27.8544 0.999862 28.0686 1.03959 28.2761C0.396385 28.9554 0 29.8705 0 30.8777V47.8405C0 48.208 0.297713 48.5057 0.665142 48.5057C1.03257 48.5057 1.33031 48.208 1.33031 47.8405V30.8777C1.33031 30.4096 1.46451 29.9738 1.69293 29.6015C2.1775 30.1471 2.87241 30.5047 3.65728 30.538C3.69734 30.5397 3.73738 30.5403 3.7768 30.5403C4.61506 30.5403 5.36748 30.1725 5.87836 29.5863C6.11259 29.9619 6.25056 30.4032 6.25056 30.8777C6.25056 31.2451 6.5483 31.5428 6.91573 31.5428C7.28316 31.5428 7.58089 31.2451 7.58089 30.8777C7.58089 29.8572 7.17428 28.9311 6.51614 28.249C6.53831 28.1251 6.5554 27.9994 6.56084 27.8702C6.7648 23.0528 8.36277 20.5437 9.6673 19.2872C9.74115 19.216 9.8024 19.1647 9.85179 19.1274C9.88359 19.2549 9.91371 19.4554 9.91371 19.7417V45.976C9.91371 47.6435 11.2702 49 12.9376 49C14.6051 49 15.9616 47.6435 15.9616 45.9804C15.9642 45.5796 15.9614 33.6698 15.9614 33.6698C15.941 32.8991 16.0861 32.3489 16.3923 32.0346C16.6482 31.7719 17.0401 31.6496 17.626 31.6496C18.212 31.6496 18.6041 31.7719 18.8598 32.0346C19.1661 32.3492 19.311 32.8991 19.2907 33.6698C19.2907 33.6698 19.2878 45.5796 19.2904 45.976C19.2904 47.6435 20.647 49 22.3144 49C23.9818 49 25.3384 47.6435 25.3384 45.976V19.7417C25.3384 19.3743 25.0406 19.0765 24.6732 19.0765C24.3057 19.0765 24.008 19.3743 24.008 19.7417V45.976C24.008 46.9099 23.2483 47.6697 22.3144 47.6697C21.3805 47.6697 20.6208 46.9099 20.6208 45.9717C20.6201 45.8736 20.6205 33.7048 20.6205 33.7048C20.6506 32.562 20.3791 31.6877 19.8129 31.1066C19.0462 30.3193 17.9772 30.3193 17.626 30.3193C17.2749 30.3193 16.2061 30.3193 15.4394 31.1063C14.8732 31.6877 14.6014 32.5618 14.6315 33.7048C14.6315 33.7048 14.6319 45.8736 14.6313 45.976C14.6313 46.9099 13.8715 47.6697 12.9376 47.6697C12.0038 47.6697 11.244 46.9099 11.244 45.976V19.7417C11.244 18.7024 10.9493 18.0277 10.3918 17.7906C9.89097 17.5778 9.33647 17.7588 8.74446 18.3289C7.26476 19.7542 5.45421 22.5565 5.23183 27.8139C5.19869 28.5968 4.55997 29.21 3.77723 29.21C3.75623 29.21 3.73502 29.2098 3.71378 29.2089C2.91071 29.1749 2.28494 28.4937 2.31896 27.6907C2.60734 20.8774 5.30632 17.3032 7.51961 15.5048C9.68333 13.7467 13.0657 13.0525 13.9178 12.9014C14.9933 13.578 16.2643 13.9711 17.626 13.9711C18.9862 13.9711 20.2559 13.579 21.3305 12.9039C22.1589 13.0751 24.7713 13.8191 26.8456 15.5048C27.8795 16.3449 28.7286 17.5007 29.3964 18.9548C28.2905 21.0976 27.4506 23.9239 27.2935 27.6346C27.278 28.0016 27.5629 28.3119 27.9299 28.3273C27.9395 28.3277 27.949 28.3279 27.9585 28.3279C28.3129 28.3279 28.6074 28.0484 28.6226 27.6909C28.7443 24.8146 29.2965 22.5175 30.0595 20.6857C30.674 22.624 31.044 24.9593 31.1596 27.6907C31.1752 28.0579 31.4913 28.3424 31.8522 28.3271C32.2192 28.3117 32.5042 28.0014 32.4886 27.6344C32.3429 24.1905 31.799 21.3185 30.8709 19.0273C31.7851 17.4279 32.851 16.2948 33.8232 15.5048C35.987 13.7467 39.3693 13.0525 40.2214 12.9014C41.2969 13.578 42.5679 13.9711 43.9297 13.9711C45.2914 13.9711 46.5625 13.578 47.6381 12.9014C48.4902 13.0526 51.8725 13.7466 54.0361 15.5048C56.2496 17.3034 58.9486 20.8776 59.2368 27.6909C59.2532 28.0798 59.1172 28.452 58.8537 28.7386C58.5902 29.0253 58.231 29.1925 57.8417 29.2089C57.8207 29.2098 57.7997 29.21 57.7787 29.21C56.9962 29.21 56.357 28.5968 56.3239 27.8139C56.1015 22.5565 54.2909 19.7542 52.8112 18.3289C52.583 18.1093 52.2309 18.081 51.9703 18.2618C49.414 20.0377 50.6362 24.5418 52.0514 29.757C52.9933 33.2274 53.9651 36.808 53.8135 39.641H34.0458C33.8943 36.808 34.866 33.2274 35.8079 29.757C37.2231 24.5418 38.4454 20.0377 35.8891 18.2618C35.5868 18.0522 35.1728 18.1266 34.9632 18.4285C34.7536 18.7303 34.8283 19.1447 35.1299 19.3543C36.9158 20.5948 35.6998 25.0755 34.5239 29.4086C33.4829 33.2456 32.4061 37.2129 32.7735 40.3828C32.8125 40.7182 33.0966 40.9713 33.4344 40.9713H36.2173V45.976C36.2173 47.6435 37.5738 49 39.2413 49C40.9228 49 42.291 47.6435 42.291 45.9741C42.291 45.949 42.286 43.617 42.291 40.9713H45.5698V45.976C45.6688 47.6405 46.9363 49 48.618 49C50.2855 49 51.642 47.6435 51.642 45.976V40.9713H54.425C54.7627 40.9713 55.0468 40.7182 55.0858 40.3828C55.4532 37.2129 54.3765 33.2456 53.3354 29.4086C52.2619 25.4531 51.1552 21.3749 52.3288 19.7504C53.5288 21.1255 54.8134 23.5843 54.9949 27.8702C55.0069 28.1552 55.0614 28.4283 55.1514 28.684C54.8375 29.1922 54.6525 29.7878 54.6525 30.428C54.6525 30.7954 54.9503 31.0931 55.3177 31.0931C55.6851 31.0931 55.9829 30.7954 55.9829 30.428C55.9829 30.2592 56.0088 30.0972 56.0482 29.9406C56.5235 30.3169 57.1247 30.5404 57.7782 30.5403C57.8176 30.5403 57.8584 30.5397 57.8982 30.538C58.6422 30.5066 59.3294 30.1872 59.8333 29.6387C59.8347 29.6371 59.8359 29.6354 59.8374 29.6338C59.9434 29.8775 60.0039 30.1454 60.0039 30.428V48.3348C60.0039 48.7023 60.3016 49 60.6691 49C61.0365 49 61.3342 48.7023 61.3342 48.3348V30.428C61.3342 29.5961 61.0271 28.8359 60.5219 28.251ZM11.9709 6.98568C11.9709 3.86731 14.5077 1.33031 17.626 1.33031C20.7444 1.33031 23.2814 3.86731 23.2814 6.98568C23.2814 10.1041 20.7444 12.6408 17.626 12.6408C14.5077 12.6408 11.9709 10.104 11.9709 6.98568ZM38.2745 6.98568C38.2745 3.86731 40.8113 1.33031 43.9297 1.33031C47.048 1.33031 49.585 3.86731 49.585 6.98568C49.585 10.1041 47.048 12.6408 43.9297 12.6408C40.8113 12.6408 38.2745 10.104 38.2745 6.98568ZM40.9607 45.976C40.9607 46.9099 40.1894 47.6697 39.2413 47.6697C38.3074 47.6697 37.5476 46.9099 37.5476 45.976V40.9713H40.9607C40.9557 43.6192 40.9607 45.9524 40.9607 45.976ZM50.3117 45.976C50.3117 46.9099 49.5519 47.6697 48.618 47.6697C47.6699 47.6697 46.9001 46.9099 46.9001 45.978C46.9001 45.9526 46.9051 43.6192 46.9001 40.9713H50.3117V45.976Z" fill="white"/>
</g>
</g>
<defs>
<clipPath id="clip0_63_2">
<rect width="62" height="49" fill="white"/>
</clipPath>
</defs>
</svg>
