<svg width="48" height="49" viewBox="0 0 48 49" fill="none" xmlns="http://www.w3.org/2000/svg">
<g clip-path="url(#clip0_63_15)">
<mask id="mask0_63_15" style="mask-type:luminance" maskUnits="userSpaceOnUse" x="0" y="0" width="48" height="49">
<path d="M47.9574 0H0V49H47.9574V0Z" fill="white"/>
</mask>
<g mask="url(#mask0_63_15)">
<path d="M47.3436 37.3979C46.7036 36.4527 45.6514 35.8884 44.5291 35.8884C44.1359 35.8884 43.7514 35.9593 43.3871 36.0922L36.0598 23.1642C35.4978 22.1727 34.4009 21.6351 33.3024 21.7965C33.0911 19.9428 32.4879 17.5433 30.8728 15.7175C29.3293 13.9728 27.1635 13.0882 24.4354 13.0882H8.8133L5.35176 1.95787C4.8919 0.479985 3.34679 -0.337926 1.90764 0.133321C0.468321 0.605351 -0.328804 2.19165 0.130686 3.66967L7.92803 28.7413L4.57568 36.0941C4.20989 35.9599 3.82363 35.8884 3.42841 35.8884C2.30603 35.8884 1.25388 36.4527 0.613823 37.3979C0.091536 38.1693 -0.106921 39.1034 0.0549697 40.0278C0.216762 40.9524 0.719634 41.757 1.47094 42.2932C7.5291 46.6181 15.5225 49 23.9787 49C32.4349 49 40.4283 46.6181 46.4865 42.2933C47.2378 41.757 47.7407 40.9524 47.9024 40.0278C48.0644 39.1034 47.8659 38.1693 47.3436 37.3979ZM24.4354 14.495C26.7584 14.495 28.5815 15.2228 29.8541 16.6583C31.2497 18.2326 31.7656 20.3937 31.9452 22.0508L12.7406 25.716L9.25084 14.495H24.4354ZM9.31496 28.5758L1.43595 3.24172C1.20614 2.50269 1.60478 1.70944 2.32432 1.47349C2.46246 1.42826 2.60238 1.40674 2.7401 1.40674C3.32049 1.40674 3.86071 1.78865 4.04647 2.38582L11.619 26.7349C11.7241 27.0725 12.0569 27.2773 12.3969 27.2125L33.4411 23.1963C34.0085 23.0883 34.585 23.3594 34.8755 23.8718L42.1912 36.7793C41.4405 37.2943 40.6552 37.775 39.8359 38.2177L33.2353 26.5721C33.0899 26.3152 32.8034 26.1804 32.518 26.2343L12.1536 30.1207C11.9364 30.1623 11.7521 30.3087 11.6584 30.5141L8.14093 38.2285C7.31723 37.7844 6.52813 37.3016 5.77365 36.7845L9.2827 29.0881C9.35596 28.9275 9.36745 28.7446 9.31496 28.5758ZM38.6069 38.8462C34.3264 40.8917 29.2783 41.991 23.9787 41.991C18.6865 41.991 13.6448 40.895 9.36814 38.8551L12.7501 31.4378L32.2939 27.708L38.6069 38.8462ZM46.5539 39.779C46.4568 40.3338 46.1551 40.8164 45.7044 41.1382C39.8736 45.3007 32.1579 47.5932 23.9787 47.5932C15.7996 47.5932 8.08384 45.3007 2.25305 41.1381C1.80237 40.8164 1.50064 40.3338 1.40352 39.779C1.30639 39.2242 1.42549 38.6637 1.73894 38.2009C2.12296 37.6337 2.75452 37.2952 3.42844 37.2952C3.84848 37.2952 4.25347 37.4258 4.59957 37.6731C9.77101 41.3647 16.6533 43.3978 23.9787 43.3978C31.3042 43.3978 38.1865 41.3647 43.358 37.673C43.7042 37.4258 44.1091 37.2952 44.5292 37.2952C45.203 37.2952 45.8346 37.6337 46.2186 38.2009C46.532 38.6637 46.651 39.2242 46.5539 39.779Z" fill="white"/>
</g>
</g>
<defs>
<clipPath id="clip0_63_15">
<rect width="48" height="49" fill="white"/>
</clipPath>
</defs>
</svg>
