<svg width="54" height="49" viewBox="0 0 54 49" fill="none" xmlns="http://www.w3.org/2000/svg">
<g clip-path="url(#clip0_63_8)">
<mask id="mask0_63_8" style="mask-type:luminance" maskUnits="userSpaceOnUse" x="0" y="0" width="54" height="49">
<path d="M53.2326 0H0V49H53.2326V0Z" fill="white"/>
</mask>
<g mask="url(#mask0_63_8)">
<path d="M52.5189 42.1853H47.7048C47.3502 39.1565 44.7696 36.7981 41.6471 36.7981C41.3338 36.7981 41.0259 36.822 40.7252 36.8678L39.0272 30.7068C40.5129 30.2193 41.5897 28.8214 41.5897 27.1748C41.5897 25.1246 39.9217 23.4566 37.8715 23.4566H34.413L32.4468 15.8433C31.668 13.0175 29.6833 11.2621 27.2675 11.2621H12.0128V3.71805C12.0128 1.66783 10.345 0 8.29481 0H3.71802C3.32384 0 3.00442 0.319417 3.00442 0.7136C3.00442 1.10778 3.32384 1.4272 3.71802 1.4272H8.29481C9.55797 1.4272 10.5857 2.45483 10.5857 3.71805V18.3233C4.42947 20.4759 0 26.3389 0 33.2204C0 41.9212 7.07853 49 15.7794 49C20.5024 49 24.7443 46.9114 27.6386 43.6125H35.5894C35.944 46.6415 38.5246 49 41.6471 49C44.7696 49 47.3502 46.6415 47.7048 43.6125H52.5189C52.9131 43.6125 53.2325 43.2931 53.2325 42.8989C53.2325 42.5048 52.9131 42.1853 52.5189 42.1853ZM40.1625 27.1748C40.1625 28.438 39.1347 29.4659 37.8715 29.4659H31.1038C30.7012 27.8229 30.0411 26.2808 29.1681 24.8838H37.8715C39.1347 24.8838 40.1625 25.9116 40.1625 27.1748ZM12.0128 12.6893H27.2675C29.0394 12.6893 30.461 14.01 31.068 16.2112L32.939 23.4566H28.1614C25.2692 19.7966 20.7957 17.441 15.7794 17.441C14.4813 17.441 13.2206 17.6018 12.0128 17.8987V12.6893ZM15.7794 47.5728C7.86554 47.5728 1.42717 41.1342 1.42717 33.2204C1.42717 25.3065 7.86554 18.8682 15.7794 18.8682C23.6933 18.8682 30.1316 25.3065 30.1316 33.2204C30.1316 41.1342 23.6933 47.5728 15.7794 47.5728ZM31.5588 33.2204C31.5588 32.4296 31.4987 31.6529 31.3859 30.8931H37.5981L39.3497 37.2486C37.3323 38.072 35.8518 39.9447 35.5894 42.1853H28.7545C30.5205 39.6372 31.5588 36.5485 31.5588 33.2204ZM41.6471 47.5728C39.0701 47.5728 36.9735 45.4762 36.9735 42.8989C36.9735 40.3217 39.0701 38.2253 41.6471 38.2253C44.2241 38.2253 46.3208 40.3219 46.3208 42.8989C46.3208 45.476 44.2241 47.5728 41.6471 47.5728Z" fill="white"/>
<path d="M15.7791 23.4502C10.3916 23.4502 6.00879 27.833 6.00879 33.2205C6.00879 38.608 10.3916 42.9906 15.7791 42.9906C21.1666 42.9906 25.5494 38.6078 25.5494 33.2205C25.5494 27.8333 21.1666 23.4502 15.7791 23.4502ZM15.7791 41.5634C11.1786 41.5634 7.43599 37.8208 7.43599 33.2205C7.43599 28.6203 11.1786 24.8774 15.7791 24.8774C20.3796 24.8774 24.1222 28.62 24.1222 33.2205C24.1222 37.821 20.3796 41.5634 15.7791 41.5634Z" fill="white"/>
</g>
</g>
<defs>
<clipPath id="clip0_63_8">
<rect width="54" height="49" fill="white"/>
</clipPath>
</defs>
</svg>
