<svg width="65" height="73" viewBox="0 0 65 73" fill="none" xmlns="http://www.w3.org/2000/svg">
<g clip-path="url(#clip0_24_24)" filter="url(#filter0_d_24_24)">
<mask id="mask0_24_24" style="mask-type:luminance" maskUnits="userSpaceOnUse" x="4" y="0" width="57" height="65">
<path d="M60.0625 0H4V65H60.0625V0Z" fill="white"/>
</mask>
<g mask="url(#mask0_24_24)">
<path d="M28.0496 47.2156C27.83 46.2667 27.331 45.42 26.6068 44.7669L20.9533 39.6696C20.6804 39.4236 20.3172 39.3014 19.9546 39.3317C19.5946 39.3631 19.2592 39.5459 19.0345 39.8333C18.2032 40.8968 17.9494 42.076 18.3198 43.1538C18.5514 43.8276 19.0024 44.5325 19.4866 45.16L15.3341 43.9219C14.8468 43.7766 14.4534 43.4047 14.2819 42.9274L13.7216 41.3636C13.1238 39.701 11.5335 38.5839 9.76439 38.5839H5.89964C5.30602 38.5839 4.75779 38.8532 4.39569 39.323C4.03359 39.7927 3.91293 40.3906 4.06307 40.957L5.69629 47.3634C6.05172 48.7969 6.43078 49.9546 7.78004 50.7248L17.5439 56.2997C18.2622 56.7098 18.7149 57.4779 18.7252 58.304L18.7601 61.0718L18.7604 61.0862C18.7602 61.0942 18.7601 61.1021 18.7601 61.1101C18.7601 63.2913 21.5028 65 25.0043 65C27.7702 65 30.1657 63.9135 30.9649 62.2962C31.2186 61.7828 31.2838 61.1787 31.1487 60.5955L28.0496 47.2156ZM29.6472 61.6471C29.1842 62.5842 27.4406 63.5329 25.0043 63.5329C22.4606 63.5329 20.2293 62.4007 20.2293 61.1101C20.2293 61.1021 20.2292 61.0942 20.2289 61.0864C20.2293 61.0754 20.2295 61.0644 20.2293 61.0533L20.1945 58.2856C20.1776 56.9421 19.4414 55.6931 18.2733 55.0262L8.50934 49.4512C7.72527 49.0036 7.45827 48.3652 7.12134 47.0063L5.48526 40.5884C5.4383 40.4112 5.51187 40.2802 5.55987 40.218C5.60801 40.1556 5.716 40.051 5.89966 40.051H6.33477C6.33943 40.0937 6.34726 40.1366 6.35984 40.1793L8.50724 47.4626C8.65959 47.9696 9.01973 48.3942 9.49531 48.6276L11.3841 49.5544C11.4883 49.6054 11.5988 49.6297 11.7076 49.6297C11.9787 49.6297 12.2396 49.4791 12.3674 49.2195C12.5464 48.8559 12.3962 48.4163 12.0321 48.2376L10.1433 47.3108C10.0333 47.2569 9.9499 47.1585 9.91572 47.0447L7.85373 40.051H9.03768L10.5228 45.6159C10.671 46.1526 11.0452 46.5969 11.5495 46.8347L13.5004 47.7547C13.6018 47.8025 13.7085 47.825 13.8136 47.825C14.089 47.825 14.353 47.6697 14.4784 47.4046C14.6517 47.0382 14.4948 46.601 14.1278 46.428L12.1769 45.508C12.0601 45.4531 11.9734 45.3502 11.9408 45.2321L10.5925 40.18C11.3895 40.4341 12.0465 41.0462 12.3385 41.8585L12.8987 43.4223C13.2275 44.3374 13.9808 45.0496 14.9138 45.3278L21.6178 47.3267C21.9463 47.4246 22.2994 47.2823 22.4678 46.9839C22.6363 46.6855 22.5754 46.3104 22.3213 46.0802C21.7388 45.5526 20.1341 43.9131 19.7095 42.6777C19.4723 41.9875 19.7639 41.3339 20.0926 40.8704L25.6222 45.8558C26.1221 46.3066 26.4665 46.8911 26.6182 47.5461L29.7173 60.9261C29.7762 61.1804 29.7513 61.4365 29.6472 61.6471Z" fill="#002E69"/>
<path d="M59.6675 39.323C59.3054 38.8532 58.7572 38.5839 58.1636 38.5839H54.2988C52.5297 38.5839 50.9394 39.701 50.3413 41.3644L49.7816 42.9268C49.6098 43.4047 49.2164 43.7767 48.7291 43.9219L44.5766 45.16C45.0608 44.5325 45.5119 43.8277 45.7434 43.1538C46.1138 42.076 45.86 40.8968 45.0287 39.8333C44.804 39.5458 44.4686 39.3631 44.1086 39.3317C43.746 39.3014 43.3827 39.4236 43.11 39.6696L37.4562 44.7669C36.7322 45.42 36.2333 46.2667 36.0136 47.2155L32.9145 60.5955C32.7794 61.1787 32.8446 61.7828 33.0983 62.2962C33.8975 63.9135 36.2929 65 39.0589 65C42.5604 65 45.3032 63.2913 45.3032 61.1101C45.3032 61.1021 45.303 61.0941 45.3028 61.0862L45.3032 61.0718L45.338 58.3041C45.3483 57.4779 45.801 56.7098 46.5194 56.2997L56.283 50.7248C57.6324 49.9546 58.0115 48.7969 58.3657 47.3681L59.9984 40.9637C60.1503 40.3906 60.0296 39.7927 59.6675 39.323ZM58.5763 40.5951L56.9407 47.0109C56.605 48.3652 56.338 49.0036 55.5538 49.4512L45.79 55.0261C44.6219 55.6931 43.8857 56.9421 43.8687 58.2856L43.8339 61.0533C43.8338 61.0644 43.8339 61.0754 43.8343 61.0864C43.834 61.0943 43.8339 61.1021 43.8339 61.1101C43.8339 62.4007 41.6026 63.5329 39.059 63.5329C36.6226 63.5329 34.8791 62.5842 34.416 61.6471C34.3119 61.4365 34.287 61.1804 34.346 60.926L37.4451 47.5461C37.5967 46.8911 37.9411 46.3066 38.441 45.8558L43.9706 40.8704C44.2993 41.3339 44.591 41.9875 44.3537 42.6777C43.9291 43.913 42.3245 45.5526 41.7422 46.0799C41.4879 46.31 41.4268 46.6852 41.5952 46.9837C41.7637 47.2823 42.1171 47.4245 42.4454 47.3267L49.1494 45.3278C50.0824 45.0496 50.8357 44.3374 51.1648 43.4216L51.7245 41.8593C52.0168 41.0464 52.6737 40.4342 53.4707 40.18L52.1242 45.2259C52.0899 45.3502 52.0031 45.4531 51.8864 45.508L49.9354 46.428C49.5685 46.6009 49.4116 47.0382 49.5848 47.4046C49.7103 47.6697 49.9741 47.825 50.2496 47.825C50.3546 47.825 50.4615 47.8025 50.5628 47.7547L52.5138 46.8347C53.018 46.5969 53.3923 46.1526 53.5421 45.6098L55.0256 40.051H56.2095L54.1486 47.0412C54.1133 47.1585 54.03 47.2568 53.9199 47.3108L51.8965 48.3036C51.5324 48.4823 51.3824 48.9219 51.5612 49.2856C51.689 49.5451 51.9498 49.6957 52.2211 49.6957C52.3299 49.6957 52.4403 49.6715 52.5446 49.6204L54.5679 48.6276C55.0435 48.3942 55.4036 47.9695 55.557 47.4591L57.7034 40.1793C57.716 40.1366 57.7238 40.0937 57.7284 40.051H58.1636C58.3472 40.051 58.4552 40.1556 58.5034 40.218C58.5514 40.2802 58.625 40.4112 58.5763 40.5951Z" fill="#002E69"/>
<path d="M47.2905 6.4983C46.9914 6.17282 46.4845 6.15113 46.1581 6.44984C45.8322 6.74869 45.8104 7.25496 46.1097 7.58051C49.2461 10.9925 50.9734 15.4241 50.9734 20.0587C50.9734 22.3064 50.5684 24.4612 49.8285 26.455C48.9897 24.3008 48.0523 21.5642 47.292 19.044C46.3934 16.0658 44.4501 15.2102 43.3347 14.8568C43.4723 14.4436 43.5479 14.0025 43.5479 13.5438C43.5479 13.4536 43.5438 13.3645 43.538 13.2758H44.3196C44.7253 13.2758 45.0543 12.9474 45.0543 12.5422C45.0543 12.1371 44.7253 11.8087 44.3196 11.8087H43.548V9.88847C43.548 8.16394 42.1429 6.761 40.4159 6.761H38.3865C36.6595 6.761 35.2544 8.16394 35.2544 9.88847V11.8087H34.4828C34.0771 11.8087 33.7481 12.1371 33.7481 12.5422C33.7481 12.9474 34.0771 13.2758 34.4828 13.2758H35.203C35.1972 13.3645 35.193 13.4536 35.193 13.5438C35.193 13.9618 35.2556 14.3653 35.3707 14.7463C34.3672 15.0234 32.7419 15.7541 31.882 17.6515C31.6491 18.1652 31.4985 18.7345 31.4341 19.3438L31.3531 20.1125C30.5078 18.8332 29.3946 18.0996 28.4671 17.6833C28.6526 17.2649 28.7708 16.8106 28.8087 16.3339C29.0661 16.1946 29.3026 16.0157 29.5055 15.799C30.0301 15.2386 30.2906 14.5071 30.2388 13.7389C30.1481 12.3917 29.0629 11.2975 27.7149 11.1939C27.4399 11.1729 27.1652 11.1922 26.8984 11.2519C26.8317 11.2669 26.7591 11.2402 26.7088 11.1828C26.1873 10.5899 25.4353 10.2498 24.6458 10.2498C23.8562 10.2498 23.1043 10.5899 22.5828 11.1828C22.5323 11.2403 22.4596 11.2667 22.393 11.2519C22.1264 11.1921 21.8519 11.1726 21.5767 11.1939C20.2284 11.2976 19.1432 12.3918 19.0527 13.7389C19.0009 14.5071 19.2614 15.2386 19.786 15.799C19.9889 16.0156 20.2254 16.1946 20.4827 16.3339C20.5161 16.7541 20.612 17.1567 20.7613 17.5329C19.5775 17.9592 17.5979 18.9991 16.9583 21.305C16.4683 23.0716 15.7395 24.5893 14.9791 25.9837C14.3459 24.1232 14.0023 22.1303 14.0023 20.0587C14.0023 9.88077 22.2949 1.60044 32.4878 1.60044C36.1489 1.60044 39.6875 2.66683 42.7211 4.68428C43.0896 4.92947 43.5871 4.82963 43.8324 4.46188C44.0778 4.094 43.978 3.59724 43.6097 3.35225C40.3119 1.15919 36.466 0 32.4878 0C21.411 0 12.3994 8.99832 12.3994 20.0588C12.3994 31.1192 21.411 40.1176 32.4878 40.1176C43.5646 40.1176 52.5762 31.1192 52.5762 20.0588C52.5762 15.0222 50.6991 10.2063 47.2905 6.4983ZM36.7237 9.88848C36.7237 8.97292 37.4696 8.22811 38.3865 8.22811H40.4158C41.3327 8.22811 42.0787 8.97292 42.0787 9.88848V11.8087H36.7237V9.88848ZM36.6622 13.541C36.6624 13.3932 36.7879 13.2758 36.9359 13.2758H41.8049C41.953 13.2758 42.0785 13.3932 42.0787 13.541V13.5438C42.0787 15.0349 40.8638 16.248 39.3705 16.248C37.8772 16.248 36.6622 15.0349 36.6622 13.5438V13.541ZM20.5185 13.8373C20.5605 13.2124 21.064 12.7048 21.6896 12.6567C21.8193 12.6466 21.9476 12.6557 22.0714 12.6834C22.6629 12.8158 23.2814 12.6119 23.6868 12.1509C23.9292 11.8751 24.2788 11.7169 24.6457 11.7169C25.0127 11.7169 25.3622 11.8751 25.6046 12.1507C26.0097 12.6117 26.6284 12.8157 27.2199 12.6834C27.3439 12.6557 27.4723 12.6466 27.6019 12.6566C28.2274 12.7047 28.7308 13.2123 28.7729 13.8374C28.7971 14.1958 28.676 14.5366 28.4322 14.797C28.1881 15.0577 27.857 15.2013 27.4997 15.2013C27.1234 15.2013 26.7681 15.0364 26.5249 14.7488C26.2212 14.3899 25.7754 14.1915 25.3054 14.1915C25.181 14.1915 25.0548 14.2055 24.9292 14.234C24.7445 14.2759 24.5469 14.2759 24.3624 14.234C23.7617 14.0977 23.1507 14.295 22.7667 14.7489C22.5234 15.0364 22.1681 15.2013 21.7918 15.2013C21.4345 15.2013 21.1033 15.0577 20.8593 14.797C20.6155 14.5366 20.4944 14.1959 20.5185 13.8373ZM27.2689 16.6577C26.9741 17.8319 25.9118 18.7053 24.6457 18.7053C23.3797 18.7053 22.3168 17.8322 22.0225 16.6577C22.7454 16.5971 23.4159 16.2547 23.8891 15.6956C23.9165 15.6631 23.9757 15.6506 24.0367 15.6646C24.4346 15.7549 24.8568 15.7549 25.2549 15.6646C25.3158 15.6506 25.3752 15.6633 25.4026 15.6958C25.8756 16.2547 26.5461 16.5971 27.2689 16.6577ZM18.7492 32.3946C18.3503 31.9522 17.9726 31.4903 17.6174 31.0108C17.6543 30.9728 17.6885 30.9314 17.7174 30.8844L18.466 29.6663C18.5729 29.4969 18.8062 29.1176 19.1003 28.5834L18.7492 32.3946ZM20.1068 33.7516L20.156 33.1381L20.9682 24.3224C20.969 24.314 20.9687 24.3059 20.9692 24.2976C21.1461 23.7426 21.3021 23.1681 21.4226 22.5845C21.5045 22.1877 21.2489 21.7997 20.8514 21.7179C20.455 21.6362 20.0655 21.8915 19.9836 22.2882C19.3342 25.4333 17.5701 28.3342 17.2185 28.8914L16.7259 29.6927C16.3392 29.0642 15.9893 28.4108 15.6788 27.7358C15.6861 27.7244 15.6943 27.714 15.7011 27.7022C16.6518 26.0319 17.7208 24.0527 18.3743 21.6965C18.8947 19.8195 20.7268 19.0643 21.5626 18.8126C22.3271 19.6477 23.4261 20.1724 24.6457 20.1724C25.812 20.1724 26.8677 19.6921 27.6263 18.9198C29.7744 19.7621 32.5553 22.282 30.4295 29.81H28.236C28.8201 28.3404 29.5636 25.4776 28.2962 22.2833C28.1467 21.9068 27.7198 21.7224 27.3427 21.8716C26.9654 22.0208 26.7807 22.4471 26.9302 22.8237C28.0316 25.5996 27.3485 28.0954 26.8433 29.3361C26.6665 29.7704 26.7177 30.2624 26.9803 30.6521C27.244 31.0434 27.6834 31.2771 28.1554 31.2771H28.6243L29.3654 38.2525C25.8402 37.6511 22.6531 36.0494 20.1068 33.7516ZM33.4037 38.4944C33.1002 38.5093 32.7949 38.5172 32.4878 38.5172C31.9404 38.5172 31.3989 38.4919 30.8635 38.4451L30.1019 31.2771H30.9801C30.9819 31.2771 30.9837 31.2767 30.9855 31.2767C30.9883 31.2767 30.991 31.2771 30.9938 31.2771H33.8914L33.4037 38.4944ZM39.838 36.9936L39.671 30.4097C39.6607 30.0047 39.33 29.6829 38.918 29.695C38.5125 29.7052 38.192 30.0419 38.2023 30.4468L38.3826 37.5547C37.2607 37.9326 36.091 38.2055 34.8851 38.3621L35.7197 26.011H42.5288L43.1051 35.1602C42.0866 35.8763 40.9928 36.4919 39.838 36.9936ZM44.5086 34.0696L44.0477 26.7516C44.1699 27.0622 44.2532 27.2687 44.2766 27.3264C44.7566 28.6427 45.2307 29.7037 45.5445 30.3629C45.7189 30.7292 46.0265 31.0033 46.4108 31.1346C46.5699 31.189 46.7336 31.216 46.8968 31.216C47.0102 31.216 47.1231 31.2026 47.234 31.1766C46.4312 32.2357 45.5169 33.2058 44.5086 34.0696ZM48.6946 28.9292C48.6554 28.9412 48.6165 28.9559 48.5787 28.975C48.3471 29.0919 48.0173 29.2388 47.6982 29.381C47.3949 29.5161 47.1084 29.6438 46.9076 29.745C46.9042 29.7467 46.8973 29.7503 46.8865 29.7466C46.8762 29.743 46.8731 29.7365 46.8715 29.7331C46.5704 29.1006 46.1147 28.0805 45.6528 26.8125C45.6498 26.8042 45.6465 26.7959 45.6433 26.7877C45.6309 26.7572 44.3972 23.711 43.6889 21.3649C43.5718 20.9771 43.1615 20.7573 42.7737 20.8742C42.5456 20.9429 42.3764 21.1125 42.2986 21.3191C42.2977 21.3217 42.2967 21.3241 42.2957 21.3268C42.289 21.3454 42.2829 21.3643 42.2776 21.3836C42.2761 21.389 42.2747 21.3944 42.2734 21.3998C42.2689 21.418 42.265 21.4364 42.2618 21.4551C42.2607 21.4619 42.2596 21.4688 42.2586 21.4757C42.2562 21.4932 42.2545 21.5108 42.2533 21.5286C42.2527 21.5366 42.2521 21.5446 42.2519 21.5526C42.2513 21.5699 42.2516 21.5872 42.2523 21.6046C42.2525 21.6106 42.2521 21.6165 42.2525 21.6226L42.4364 24.5439H35.8189L36.0161 21.6259C36.0435 21.2217 35.7375 20.8719 35.3326 20.8447C34.9302 20.8161 34.5775 21.1229 34.5502 21.5272L33.9905 29.81H31.9523C32.6881 27.0405 32.7868 24.874 32.5076 23.1795L32.8952 19.4974C32.9431 19.0446 33.0525 18.627 33.2205 18.2563C33.9114 16.732 35.2724 16.2448 36.064 16.0887C36.8286 17.0769 38.026 17.7151 39.3706 17.7151C40.6773 17.7151 41.8453 17.1125 42.6119 16.1714C43.5142 16.4321 45.1228 16.9403 45.8852 19.4672C46.6998 22.1669 47.716 25.1157 48.6013 27.3491L48.9932 28.3643C48.8968 28.5545 48.7973 28.7428 48.6946 28.9292Z" fill="#002E69"/>
</g>
</g>
<defs>
<filter id="filter0_d_24_24" x="0" y="0" width="65" height="73" filterUnits="userSpaceOnUse" color-interpolation-filters="sRGB">
<feFlood flood-opacity="0" result="BackgroundImageFix"/>
<feColorMatrix in="SourceAlpha" type="matrix" values="0 0 0 0 0 0 0 0 0 0 0 0 0 0 0 0 0 0 127 0" result="hardAlpha"/>
<feOffset dy="4"/>
<feGaussianBlur stdDeviation="2"/>
<feComposite in2="hardAlpha" operator="out"/>
<feColorMatrix type="matrix" values="0 0 0 0 0 0 0 0 0 0 0 0 0 0 0 0 0 0 0.25 0"/>
<feBlend mode="normal" in2="BackgroundImageFix" result="effect1_dropShadow_24_24"/>
<feBlend mode="normal" in="SourceGraphic" in2="effect1_dropShadow_24_24" result="shape"/>
</filter>
<clipPath id="clip0_24_24">
<rect width="57" height="65" fill="white" transform="translate(4)"/>
</clipPath>
</defs>
</svg>
