<svg width="67" height="65" viewBox="0 0 67 65" fill="none" xmlns="http://www.w3.org/2000/svg">
<g clip-path="url(#clip0_6_16)">
<mask id="mask0_6_16" style="mask-type:luminance" maskUnits="userSpaceOnUse" x="0" y="0" width="67" height="65">
<path d="M66.9118 0H0V65H66.9118V0Z" fill="white"/>
</mask>
<g mask="url(#mask0_6_16)">
<path d="M65.4317 49.7859C65.5072 49.4627 65.4818 49.1136 65.3358 48.7879C64.179 46.2075 62.9681 42.3625 61.9363 38.9416C60.9408 35.6409 58.7621 34.7443 57.5677 34.3764C57.7475 33.8829 57.8459 33.3507 57.8459 32.7959C57.8459 32.6621 57.8381 32.5302 57.8268 32.3992H58.8131C59.2213 32.3992 59.5523 32.0686 59.5523 31.6609C59.5523 31.2532 59.2213 30.9226 58.8131 30.9226H57.8459V28.6535C57.8459 26.7504 56.2957 25.2021 54.3904 25.2021H52.0913C50.186 25.2021 48.6359 26.7504 48.6359 28.6535V30.9226H47.6685C47.2603 30.9226 46.9293 31.2532 46.9293 31.6609C46.9293 32.0686 47.2603 32.3992 47.6685 32.3992H48.5854C48.5741 32.5302 48.5663 32.6621 48.5663 32.7959C48.5663 33.308 48.6512 33.8004 48.8054 34.2613C47.6825 34.5799 45.9044 35.4011 44.9581 37.4895C44.6984 38.0627 44.5303 38.6983 44.4585 39.3786L44.4046 39.8906C43.3446 38.4888 42.0012 37.7497 40.9815 37.366C41.4971 36.6193 41.8 35.7153 41.8 34.7416C41.8 34.1493 41.687 33.5832 41.4833 33.0622C42.4074 32.5062 43.027 31.4945 43.027 30.3406C43.027 28.5898 41.6009 27.1655 39.8481 27.1655C38.1653 27.1655 36.7844 28.4784 36.6767 30.1325C34.3447 30.3749 32.5205 32.3494 32.5205 34.7416C32.5205 35.661 32.7911 36.518 33.2553 37.2395C32.0652 37.5913 29.3463 38.6981 28.5404 41.6042C28.278 42.5505 28.0013 43.4088 27.6908 44.2282C26.58 42.6165 24.8827 42.1352 24.1321 41.9978C24.1264 41.9967 24.1206 41.9958 24.1148 41.9949L23.9426 41.9676C24.4866 41.2577 24.8108 40.3712 24.8108 39.4102C24.8108 37.0852 22.9169 35.1936 20.5892 35.1936C19.2789 35.1936 18.1063 35.7929 17.3313 36.7314C16.117 35.2624 14.4621 34.7981 13.6971 34.658C13.6913 34.657 13.6855 34.6561 13.6798 34.6552L13.3376 34.601C13.9914 33.8021 14.3844 32.7824 14.3844 31.6726C14.3844 31.5187 14.3742 31.3673 14.3594 31.2172C14.6512 31.0624 14.9187 30.8606 15.1478 30.6159C15.7243 29.9999 16.0106 29.1957 15.9536 28.3513C15.8541 26.8701 14.6616 25.6672 13.1797 25.5535C12.877 25.5296 12.5752 25.5515 12.2824 25.6172C12.1739 25.6417 12.0568 25.6001 11.9771 25.5095C11.404 24.8577 10.5777 24.4839 9.70987 24.4839C8.84208 24.4839 8.0155 24.8578 7.44261 25.5095C7.36281 25.6001 7.24601 25.6418 7.13708 25.617C6.844 25.5516 6.54188 25.5299 6.23988 25.5535C4.75826 25.6674 3.56564 26.8703 3.46602 28.3512C3.40919 29.1958 3.69544 30 4.272 30.616C4.51812 30.8789 4.80827 31.093 5.12563 31.2516C5.11286 31.3904 5.10489 31.5306 5.10489 31.6726C5.10489 32.7883 5.50177 33.8131 6.16177 34.6138L5.90036 34.6552C5.89458 34.6561 5.88882 34.657 5.88304 34.6581C4.92744 34.8329 2.58169 35.5112 1.44262 38.0254C1.18303 38.5986 1.01476 39.2342 0.942446 39.919L0.00637093 49.3446C-0.0324827 49.7626 0.107691 50.1803 0.390916 50.4906C0.674005 50.8007 1.07733 50.9786 1.49758 50.9786H4.08951L3.17057 63.5071C3.14235 63.8913 3.27674 64.2735 3.53936 64.5559C3.80198 64.8381 4.1738 65 4.55966 65H7.7652C8.50044 65 9.11111 64.4259 9.15548 63.6928L9.78454 53.276C9.78507 53.265 9.80449 53.2655 9.80515 53.276L10.4332 63.6929C10.4775 64.4259 11.0882 65 11.8234 65H18.7756C19.4738 65 20.0538 64.4548 20.0954 63.7687L20.5876 57.1348L21.0786 63.7586C21.1207 64.4547 21.7007 65 22.3989 65H25.2645C25.6295 65 25.9818 64.8473 26.231 64.5809C26.4801 64.3145 26.6089 63.9534 26.5834 63.5785L26.0127 56.7257H28.0331C28.4307 56.7257 28.8122 56.5574 29.08 56.264C29.3477 55.9706 29.4801 55.5757 29.4428 55.1757L29.0859 51.5809C29.4543 51.4891 29.7853 51.2604 29.998 50.9234C30.3295 50.3983 30.6405 49.8737 30.9308 49.3516L30.3904 56.3174C30.3746 56.5225 30.445 56.725 30.585 56.876C30.7249 57.0268 30.9215 57.1127 31.1274 57.1127H32.6024L32.8615 63.7225C32.8883 64.4125 33.4508 64.9528 34.1421 64.9528H39.8253C40.5163 64.9528 41.0788 64.4126 41.1059 63.7228L41.365 57.1127H42.8831C43.093 57.1127 43.2929 57.0237 43.4331 56.8677C43.5733 56.7118 43.6405 56.5037 43.6181 56.2954L43.2396 52.7875H43.7454C43.7854 52.7943 43.8258 52.7997 43.867 52.7997H47.2494L46.528 63.4808C46.5021 63.8637 46.6377 64.244 46.9 64.5244C47.1625 64.8047 47.5333 64.9655 47.9176 64.9655H51.1272C51.8624 64.9655 52.4732 64.3913 52.5176 63.6584L53.1456 53.2884C53.1461 53.2774 53.1657 53.2771 53.1662 53.2884L53.7953 63.6584C53.8396 64.3913 54.4503 64.9655 55.1856 64.9655H58.3911C58.777 64.9655 59.1488 64.8036 59.4114 64.5214C59.674 64.2391 59.8084 63.8568 59.7802 63.4725L58.6111 47.5679C58.6999 47.8072 58.7529 47.947 58.7546 47.9516C59.2816 49.3986 59.8015 50.5617 60.1445 51.2826C60.3278 51.6676 60.6509 51.9557 61.0546 52.0939C61.2219 52.1511 61.3942 52.1795 61.5657 52.1795C61.7137 52.1795 61.8607 52.1557 62.004 52.1136V64.2267C62.004 64.6344 62.335 64.965 62.7432 64.965C63.1514 64.965 63.4824 64.6344 63.4824 64.2267V52.034C63.4824 51.772 63.5851 51.526 63.7716 51.3416C63.9581 51.157 64.2072 51.052 64.4679 51.0597C65.0002 51.0651 65.4334 51.5022 65.4334 52.034V52.8492C65.4334 53.2569 65.7645 53.5875 66.1726 53.5875C66.5808 53.5875 66.9118 53.2569 66.9118 52.8492V52.034C66.9118 51.0324 66.3008 50.1646 65.4317 49.7859ZM20.5892 36.6702C21.8454 36.6702 22.9046 37.519 23.2284 38.6719H17.9499C18.2738 37.519 19.333 36.6702 20.5892 36.6702ZM23.0876 40.535C22.6572 41.4861 21.7002 42.1502 20.5892 42.1502C19.4781 42.1502 18.5211 41.4861 18.0907 40.535C18.0088 40.3538 18.1459 40.1485 18.345 40.1485H22.8333C23.0324 40.1485 23.1695 40.3538 23.0876 40.535ZM5.35186 29.6075C5.05773 29.2935 4.91193 28.8825 4.94093 28.4503C4.99172 27.6961 5.59899 27.0837 6.35351 27.0256C6.50956 27.0135 6.66444 27.0247 6.81366 27.0578C7.4498 27.201 8.11693 26.9806 8.55344 26.4838C8.84586 26.1512 9.26728 25.9605 9.70984 25.9605C10.1524 25.9605 10.5738 26.1512 10.8662 26.4838C11.3028 26.9806 11.9699 27.2006 12.6058 27.0579C12.7554 27.0247 12.9103 27.0136 13.0662 27.0256C13.8206 27.0836 14.4279 27.696 14.4787 28.4503C14.5078 28.8825 14.3619 29.2934 14.0679 29.6075C13.7735 29.922 13.3741 30.0952 12.9433 30.0952C12.4895 30.0952 12.061 29.8963 11.7677 29.5495C11.4415 29.164 10.9625 28.9509 10.4569 28.9509C10.3229 28.9509 10.1868 28.966 10.0514 28.9966C9.82904 29.0472 9.59096 29.0472 9.36811 28.9966C8.7216 28.8494 8.06431 29.0618 7.65207 29.5495C7.35874 29.8963 6.93022 30.0952 6.47638 30.0952C6.04563 30.0952 5.64623 29.922 5.35186 29.6075ZM9.74464 34.8303C8.00144 34.8303 6.58321 33.4137 6.58321 31.6726C6.58321 31.6376 6.58653 31.6035 6.58767 31.5687C7.43604 31.5376 8.2305 31.1536 8.78143 30.5024C8.83511 30.4388 8.93656 30.413 9.04011 30.4364C9.4769 30.5359 9.94216 30.5361 10.3792 30.4366C10.4837 30.413 10.5847 30.4391 10.6384 30.5025C11.2044 31.1716 12.0276 31.5589 12.9023 31.5707C12.9034 31.6047 12.9061 31.6383 12.9061 31.6726C12.9061 33.4137 11.4878 34.8303 9.74464 34.8303ZM11.4844 35.9676C11.4789 37.0113 10.6277 37.8587 9.5815 37.8587C8.53181 37.8587 7.67791 37.0059 7.67791 35.9574C7.67791 35.9276 7.67561 35.8983 7.67217 35.8693L7.70941 35.8634C7.72264 35.8613 7.73534 35.858 7.74827 35.8552C8.35331 36.1445 9.0303 36.3069 9.74464 36.3069C10.3598 36.3069 10.9468 36.1856 11.4844 35.9676ZM14.6 63.5234H11.904L11.2809 53.1869C11.2332 52.4035 10.5804 51.7898 9.79477 51.7898C9.00914 51.7898 8.35619 52.4036 8.30882 53.1871L7.68462 63.5235H4.65167L5.87691 46.8196H10.6992C11.1074 46.8196 11.4384 46.4889 11.4384 46.0813C11.4384 45.6736 11.1074 45.343 10.6992 45.343H5.98522L6.23475 41.9412C6.26455 41.5344 5.95874 41.1806 5.55162 41.1508C5.1403 41.1221 4.79027 41.4264 4.76034 41.8331L4.19783 49.5021H1.49758C1.49378 49.5021 1.48904 49.5021 1.4834 49.4958C1.47815 49.49 1.47802 49.4855 1.47802 49.4855L2.41301 40.0695C2.46839 39.5463 2.59505 39.0633 2.78942 38.6342C3.63727 36.7628 5.40908 36.2474 6.14104 36.1121L6.20325 36.1022C6.2795 37.8979 7.76527 39.3353 9.5815 39.3353C11.4198 39.3353 12.9191 37.8625 12.9613 36.0363L13.4389 36.112C14.1077 36.2357 15.6442 36.6774 16.5513 38.1802C16.4321 38.5695 16.3675 38.9824 16.3675 39.4102C16.3675 40.3764 16.6954 41.2672 17.2448 41.979L17.1445 41.9949C17.1387 41.9958 17.133 41.9967 17.1272 41.9978C16.6663 42.0822 15.8481 42.2961 15.0281 42.8217L14.9616 41.8375C14.9342 41.4304 14.5787 41.1222 14.1744 41.1505C13.7671 41.1779 13.4591 41.53 13.4867 41.9368L13.6351 44.1336C13.4392 44.4044 13.2596 44.7078 13.1049 45.0493C12.8695 45.5689 12.7172 46.1446 12.6516 46.7647L11.816 55.1803C11.7792 55.5757 11.9116 55.9707 12.1794 56.2641C12.4471 56.5574 12.8287 56.7258 13.2262 56.7258H15.2595L14.6 63.5234ZM25.8898 55.2492L25.3251 48.4685C25.2912 48.0623 24.9356 47.7613 24.5272 47.7939C24.1203 47.8278 23.818 48.1846 23.8518 48.591L25.0953 63.5234H22.5435L21.9935 56.1027C21.9487 55.3614 21.3313 54.7807 20.5877 54.7807C19.8441 54.7807 19.227 55.3613 19.1826 56.0925L18.6312 63.5235H16.0853L17.1587 52.4601H21.224C21.6322 52.4601 21.9632 52.1295 21.9632 51.7218C21.9632 51.3141 21.6322 50.9835 21.224 50.9835H17.3019L17.5331 48.6009C17.5725 48.1951 17.2749 47.8342 16.8686 47.7949C16.4618 47.7551 16.101 48.0527 16.0616 48.4586L15.4028 55.2492H13.2947L14.1223 46.9151C14.1707 46.4567 14.2816 46.0337 14.4517 45.6581C15.1669 44.0798 16.5929 43.5984 17.3853 43.4517L18.7269 43.2391H18.824C19.3615 43.4873 19.9591 43.6268 20.5892 43.6268C21.2192 43.6268 21.8169 43.4873 22.3543 43.2391H22.5324L23.874 43.4517C24.6664 43.5984 26.0924 44.0798 26.8075 45.6581C26.9776 46.0337 27.0885 46.4567 27.1366 46.9105L27.9646 55.2492H25.8898ZM39.8481 28.6421C40.7858 28.6421 41.5486 29.404 41.5486 30.3406C41.5486 30.9534 41.2209 31.4892 40.7322 31.7874C40.0829 31.0054 39.1814 30.4402 38.1538 30.2153C38.2184 29.3372 38.9527 28.6421 39.8481 28.6421ZM37.1603 31.5839C38.649 31.5839 39.8997 32.6172 40.2335 34.0033H34.087C34.4208 32.6172 35.6717 31.5839 37.1603 31.5839ZM34.1838 35.8038C34.1273 35.6463 34.2419 35.4799 34.4094 35.4799H39.9112C40.0786 35.4799 40.1932 35.6463 40.1367 35.8038C39.6991 37.0238 38.5305 37.8993 37.1603 37.8993C35.7901 37.8993 34.6215 37.0238 34.1838 35.8038ZM36.2445 63.4762H34.3313L34.082 57.1127H36.2445V63.4762ZM39.6361 63.4762H37.7228V57.1127H39.8855L39.6361 63.4762ZM43.7835 51.311H41.5906C41.5837 51.311 41.573 51.311 41.5629 51.296C41.5549 51.2841 41.5572 51.2786 41.5598 51.272C42.2209 49.6481 43.1133 46.3779 41.6635 42.7225C41.5131 42.3432 41.0832 42.1575 40.7041 42.308C40.3245 42.4582 40.1387 42.8872 40.2891 43.2662C41.5488 46.4424 40.768 49.297 40.1904 50.7158C40.0016 51.1792 40.0562 51.7042 40.3363 52.1202C40.6178 52.5381 41.0866 52.7876 41.5906 52.7876H41.7526L42.06 55.6362H31.926L32.7146 45.4694C33.0178 44.6239 33.2544 43.8007 33.4175 43.0106C33.4999 42.6113 33.2426 42.2208 32.8427 42.1385C32.4443 42.0563 32.0521 42.3131 31.9696 42.7125C31.5202 44.8889 30.4651 47.3563 28.9154 49.8646L28.6072 46.7602C28.5842 46.5426 28.5497 46.3303 28.5051 46.1234C29.0807 44.8344 29.5461 43.5096 29.9652 41.9983C30.5837 39.7673 32.7953 38.9085 33.7175 38.6428L34.4367 38.4891C35.2022 39.0458 36.143 39.3758 37.1603 39.3758C38.1501 39.3758 39.0674 39.0632 39.8214 38.5336L40.4012 38.7255C42.8923 39.6277 46.3044 42.4572 43.7835 51.311ZM50.1142 28.6535C50.1142 27.5646 51.0012 26.6787 52.0913 26.6787H54.3904C55.4806 26.6787 56.3675 27.5646 56.3675 28.6535V30.9226H50.1142V28.6535ZM50.0447 32.7919C50.045 32.5732 50.2298 32.3992 50.4486 32.3992H55.9636C56.1825 32.3992 56.3671 32.5733 56.3675 32.7919V32.7959C56.3675 34.537 54.9493 35.9536 53.2061 35.9536C51.4629 35.9536 50.0447 34.537 50.0447 32.7959V32.7919ZM63.9433 49.5129L61.6068 50.6918C61.583 50.7037 61.5585 50.7054 61.5336 50.6969C61.5091 50.6885 61.4909 50.6724 61.4797 50.6488C61.1502 49.9567 60.6511 48.8394 60.1406 47.4376C60.1286 47.4062 58.9428 44.2747 58.1645 41.6983C58.1646 41.6985 58.1644 41.6981 58.1645 41.6983C58.1634 41.6945 58.162 41.6901 58.1608 41.6863C58.1588 41.6795 58.156 41.6732 58.1538 41.6665C58.1487 41.6513 58.1437 41.6361 58.1376 41.6214C58.1331 41.6102 58.1278 41.5996 58.1228 41.5887C58.1179 41.5782 58.1133 41.5677 58.108 41.5575C58.1001 41.5425 58.0915 41.5282 58.0828 41.5139C58.0795 41.5087 58.0765 41.5032 58.0731 41.4981C58.0615 41.4801 58.049 41.4629 58.036 41.4462C58.0351 41.445 58.0342 41.4438 58.0333 41.4426C57.8849 41.2546 57.6514 41.1478 57.4086 41.1628C57.4054 41.163 57.4023 41.1628 57.3991 41.163C57.3982 41.1631 57.3973 41.1633 57.3963 41.1633C57.3792 41.1647 57.3619 41.1672 57.3447 41.1697C57.3363 41.171 57.3277 41.1718 57.3193 41.1734C57.3087 41.1754 57.2981 41.1782 57.2875 41.1807C57.2726 41.1841 57.2578 41.1874 57.2434 41.1916C57.2422 41.192 57.241 41.1921 57.2399 41.1925C57.2347 41.1941 57.2299 41.1962 57.2248 41.1979C57.2073 41.2036 57.19 41.2094 57.1732 41.2163C57.1656 41.2194 57.1583 41.223 57.1509 41.2263C57.1364 41.2328 57.1219 41.2393 57.108 41.2467C57.0984 41.2517 57.0893 41.2574 57.08 41.2628C57.0689 41.2693 57.0577 41.2757 57.047 41.2828C57.0363 41.2897 57.0262 41.2973 57.016 41.3048C57.0072 41.3113 56.9983 41.3176 56.9898 41.3244C56.9792 41.333 56.9691 41.342 56.9591 41.3511C56.9516 41.3579 56.944 41.3645 56.9368 41.3715C56.9271 41.3809 56.9181 41.3908 56.909 41.4007C56.9019 41.4084 56.8947 41.4161 56.8879 41.4241C56.88 41.4336 56.8725 41.4434 56.8651 41.4533C56.858 41.4626 56.8509 41.4718 56.8442 41.4815C56.838 41.4905 56.8323 41.4999 56.8265 41.5092C56.8195 41.5203 56.8126 41.5314 56.8063 41.5428C56.8016 41.5514 56.7973 41.5602 56.7929 41.5689C56.7866 41.5816 56.7803 41.5941 56.7747 41.6071C56.771 41.6156 56.7678 41.6244 56.7645 41.633C56.7592 41.6465 56.7541 41.6599 56.7496 41.6737C56.7466 41.683 56.7442 41.6925 56.7416 41.702C56.7379 41.7152 56.7341 41.7284 56.7312 41.742C56.7287 41.7533 56.727 41.7647 56.725 41.7762C56.723 41.788 56.7208 41.7998 56.7194 41.8118C56.7178 41.8259 56.717 41.8401 56.7161 41.8543C56.7155 41.8641 56.7146 41.8737 56.7144 41.8836C56.7141 41.8996 56.7148 41.9157 56.7155 41.9318C56.7158 41.939 56.7155 41.9461 56.716 41.9533L58.2991 63.4889H55.2661L54.6419 53.199C54.5943 52.4156 53.9416 51.802 53.156 51.802C52.3703 51.802 51.7175 52.4156 51.6699 53.1992L51.0467 63.4889H48.0091L49.1342 46.8318H54.582C54.9901 46.8318 55.3211 46.5012 55.3211 46.0935C55.3211 45.6859 54.9901 45.3552 54.582 45.3552H49.234L49.4641 41.949C49.4916 41.5422 49.1837 41.1901 48.7763 41.1627C48.3692 41.1349 48.0166 41.4427 47.9891 41.8496L47.3492 51.3231H45.3133C46.401 47.2989 46.3044 44.3962 45.637 42.305L45.9287 39.5333C45.984 39.0102 46.1105 38.5274 46.305 38.0982C47.1035 36.3359 48.7213 35.7762 49.5184 35.6039C50.367 36.7129 51.704 37.4302 53.2061 37.4302C54.6661 37.4302 55.9699 36.7525 56.8211 35.6962L56.8366 35.7001C57.8233 35.9842 59.6598 36.513 60.5207 39.3675C61.5662 42.8333 62.7956 46.7346 63.9866 49.3914C64.0071 49.437 63.9879 49.4904 63.9433 49.5129Z" fill="#002E69"/>
<path d="M36.3045 6.23884C35.1953 6.21117 34.1951 6.58045 33.4726 7.28324C33.3997 7.35415 33.3304 7.42796 33.265 7.50451C33.2 7.42848 33.1312 7.3552 33.0589 7.28481C32.3372 6.58216 31.3312 6.2079 30.2283 6.23884C28.2174 6.29009 26.5813 7.99702 26.5813 10.0439V10.1586C26.5813 12.0764 27.4953 13.9125 29.0261 15.07L32.2096 17.4771C32.5427 17.729 32.94 17.8547 33.3373 17.8547C33.7427 17.8547 34.1481 17.7236 34.4849 17.4621L37.5694 15.0642C39.0815 13.8887 39.9488 12.1169 39.9488 10.203V10.0439C39.9488 7.99898 38.314 6.29206 36.3045 6.23884ZM38.336 10.203C38.336 11.6164 37.6955 12.9249 36.5788 13.793L33.4944 16.1908C33.4032 16.2616 33.2753 16.2625 33.1831 16.1927L29.9994 13.7855C28.869 12.9307 28.194 11.5748 28.194 10.1585V10.0438C28.194 8.86285 29.1251 7.87837 30.2695 7.84913C30.2933 7.84848 30.3171 7.84822 30.3407 7.84822C30.9688 7.84822 31.546 8.06138 31.9332 8.43826C32.2769 8.77306 32.4587 9.22021 32.4587 9.73146C32.4587 10.1763 32.8198 10.5369 33.2651 10.5369C33.7104 10.5369 34.0715 10.1763 34.0715 9.73146C34.0715 9.21969 34.2535 8.77214 34.5977 8.43721C34.9999 8.04617 35.6086 7.83223 36.2617 7.84913C37.4055 7.87942 38.336 8.86403 38.336 10.0438V10.203Z" fill="#002E69"/>
<path d="M33.2652 22.8295C39.5667 22.8295 44.6934 17.7088 44.6934 11.4147C44.6934 9.14247 44.0266 6.94751 42.7649 5.06727C42.5171 4.69785 42.0165 4.59863 41.646 4.84652C41.2762 5.09415 41.1772 5.59452 41.4251 5.96406C42.5082 7.57804 43.0807 9.46287 43.0807 11.4147C43.0807 16.8206 38.6775 21.2186 33.2652 21.2186C27.8529 21.2186 23.4497 16.8206 23.4497 11.4147C23.4497 6.00877 27.8529 1.61084 33.2652 1.61084C34.9866 1.61084 36.6797 2.06204 38.1613 2.91557C38.5471 3.13789 39.0403 3.0055 39.2627 2.62036C39.4853 2.23495 39.3529 1.74245 38.9672 1.52025C37.2408 0.525669 35.2691 0 33.2652 0C26.9636 0 21.8369 5.12064 21.8369 11.4147C21.8369 17.7087 26.9636 22.8295 33.2652 22.8295Z" fill="#002E69"/>
</g>
</g>
<defs>
<clipPath id="clip0_6_16">
<rect width="67" height="65" fill="white"/>
</clipPath>
</defs>
</svg>
