<svg width="54" height="73" viewBox="0 0 54 73" fill="none" xmlns="http://www.w3.org/2000/svg">
<g clip-path="url(#clip0_6_2)">
<mask id="mask0_6_2" style="mask-type:luminance" maskUnits="userSpaceOnUse" x="0" y="0" width="54" height="73">
<path d="M53.7803 0H0V73H53.7803V0Z" fill="white"/>
</mask>
<g mask="url(#mask0_6_2)">
<path d="M34.1932 7.13366H33.5945V6.5349C33.5945 6.22933 33.3468 5.98157 33.0412 5.98157C32.7355 5.98157 32.4878 6.22933 32.4878 6.5349V7.13366H31.889C31.5834 7.13366 31.3357 7.38142 31.3357 7.68699C31.3357 7.99256 31.5834 8.24032 31.889 8.24032H32.4878V8.83909C32.4878 9.14466 32.7355 9.39242 33.0412 9.39242C33.3468 9.39242 33.5945 9.14466 33.5945 8.83909V8.24032H34.1932C34.4989 8.24032 34.7466 7.99256 34.7466 7.68699C34.7466 7.38142 34.4989 7.13366 34.1932 7.13366Z" fill="#002E69"/>
<path d="M36.3133 4.38334C35.0124 4.14045 34.1788 3.43992 33.7974 3.0439C33.6007 2.83975 33.3251 2.72266 33.0413 2.72266C32.7575 2.72271 32.4817 2.83986 32.2851 3.04395C31.9038 3.43992 31.0698 4.14045 29.7691 4.38334C29.3034 4.47033 28.9514 4.85999 28.9131 5.33097C28.8267 6.39423 28.8271 10.0518 32.4591 12.4751C32.636 12.5931 32.8386 12.652 33.0413 12.652C33.244 12.652 33.4467 12.593 33.6234 12.4751C37.2558 10.0515 37.2559 6.39413 37.1693 5.33091C37.131 4.85993 36.7791 4.47028 36.3133 4.38334ZM33.0412 11.3991C30.2391 9.47359 30.0448 6.76374 30.1175 5.55532C31.5575 5.2551 32.5298 4.50707 33.0413 4.00962C33.5527 4.50702 34.5246 5.2551 35.965 5.55532C36.0378 6.76363 35.8433 9.47325 33.0412 11.3991Z" fill="#002E69"/>
<path d="M51.8661 54.3707C52.0205 53.9628 52.0198 53.4971 51.8279 53.0685C50.3715 49.8161 48.8508 44.9813 47.5552 40.6807C46.2647 36.397 43.4438 35.4706 41.9826 35.046C42.2622 34.3836 42.4171 33.6561 42.4171 32.8931C42.4171 32.6349 42.3969 32.3816 42.3622 32.1328H43.892C44.2587 32.1328 44.556 31.8355 44.556 31.4688C44.556 31.1021 44.2587 30.8048 43.892 30.8048H42.4171V27.6948C42.4171 25.4513 40.5919 23.6262 38.3485 23.6262H35.4668C33.2233 23.6262 31.3982 25.4513 31.3982 27.6948V30.8048H29.9232C29.5565 30.8048 29.2592 31.1021 29.2592 31.4688C29.2592 31.8355 29.5565 32.1328 29.9232 32.1328H31.366C31.3313 32.3816 31.3111 32.6349 31.3111 32.8931C31.3111 33.6052 31.4473 34.2857 31.6926 34.9119C30.3659 35.2389 27.9884 36.1882 26.765 38.8911C26.4511 39.585 26.2478 40.3554 26.1607 41.1811L25.9484 43.2008C24.6628 40.7885 22.7025 39.5749 21.2136 38.9734C21.5876 38.2656 21.8132 37.4682 21.8485 36.6221C22.2503 36.4337 22.6176 36.1706 22.9254 35.8414C23.5981 35.122 23.9319 34.1826 23.8655 33.1961C23.7493 31.4668 22.3585 30.0623 20.6304 29.9292C20.2778 29.9021 19.9249 29.9272 19.5834 30.0038C19.3538 30.0554 19.1094 29.9718 18.946 29.7857C18.2776 29.0245 17.3136 28.5879 16.3014 28.5879C15.2892 28.5879 14.3253 29.0245 13.6569 29.7857C13.4935 29.9718 13.2491 30.0554 13.0194 30.0038C12.6781 29.9272 12.3256 29.902 11.9723 29.9292C10.2444 30.0624 8.85359 31.4668 8.7373 33.1961C8.67095 34.1826 9.00478 35.122 9.67742 35.8414C9.98526 36.1706 10.3525 36.4337 10.7543 36.6221C10.7867 37.3969 10.9775 38.1314 11.2969 38.7931C9.76965 39.2773 6.68619 40.6527 5.75029 44.0319C4.79925 47.4654 3.7073 49.9892 1.85549 53.0331C1.59536 53.4607 1.547 53.9744 1.72164 54.4439C0.712079 54.8727 0 55.8756 0 57.0348V58.0578C0 58.4246 0.297303 58.7218 0.663994 58.7218C1.03069 58.7218 1.32799 58.4246 1.32799 58.0578V57.0348C1.32799 56.2241 1.98745 55.5579 2.79798 55.5497C2.80328 55.5496 2.80836 55.5496 2.81354 55.5496C3.20736 55.5496 3.57782 55.7019 3.85806 55.9793C4.14207 56.2604 4.29846 56.6352 4.29846 57.0348V72.3353C4.29846 72.702 4.59576 72.9993 4.96245 72.9993C5.32914 72.9993 5.62644 72.702 5.62644 72.3353V57.0348C5.62644 56.7696 5.58927 56.5103 5.51885 56.2622C5.58694 56.2709 5.65508 56.2761 5.72285 56.2761C6.27153 56.2761 6.79838 55.9982 7.10206 55.5166C7.74909 54.4906 8.33284 53.4666 8.8518 52.4542L8.07773 62.4455C8.06347 62.63 8.1268 62.812 8.25249 62.9478C8.37817 63.0836 8.55476 63.1608 8.73978 63.1608H10.841L11.1756 71.708C11.2039 72.4321 11.7938 72.9993 12.5184 72.9993H19.6418C20.3664 72.9993 20.9562 72.4321 20.9846 71.708L21.3191 63.1608H23.4745C23.663 63.1608 23.8426 63.0807 23.9685 62.9404C24.0945 62.8002 24.155 62.613 24.1348 62.4256L23.629 57.7332H29.6787L28.7555 71.4169C28.7279 71.8252 28.8724 72.2308 29.1519 72.5296C29.4314 72.8286 29.8263 73 30.2354 73H34.2584C35.0414 73 35.6916 72.3878 35.739 71.6063L36.5262 58.5931C36.5349 58.4479 36.6558 58.3342 36.8011 58.3342C36.9465 58.3342 37.0673 58.4479 37.076 58.5929L37.8645 71.6063C37.9119 72.3878 38.5621 73 39.3451 73H43.3629C43.7737 73 44.1697 72.8274 44.4494 72.5265C44.7291 72.2255 44.8723 71.8179 44.8423 71.4081L43.2382 49.5619C43.7097 50.882 44.0596 51.807 44.0653 51.8221C44.7217 53.6267 45.3697 55.0789 45.7978 55.9794C45.997 56.3983 46.3482 56.7116 46.7869 56.8617C46.9685 56.9239 47.1555 56.9548 47.3417 56.9548C47.6053 56.9548 47.8673 56.8929 48.1101 56.7702C48.1293 56.7605 48.1498 56.7502 48.1694 56.7403C48.1593 56.8375 48.154 56.9357 48.154 57.0348V72.3353C48.154 72.702 48.4513 72.9993 48.818 72.9993C49.1847 72.9993 49.482 72.702 49.482 72.3353V57.0348C49.482 56.6352 49.6383 56.2603 49.9224 55.9793C50.2063 55.6982 50.5831 55.5448 50.9822 55.5496C51.7929 55.5579 52.4523 56.2241 52.4523 57.0348V58.0578C52.4523 58.4246 52.7496 58.7218 53.1163 58.7218C53.483 58.7218 53.7803 58.4246 53.7803 58.0578V57.0348C53.7803 55.8032 52.9765 54.7484 51.8661 54.3707ZM38.7365 38.3571C38.7365 39.3656 37.916 40.186 36.9076 40.186C35.8991 40.186 35.0788 39.3656 35.0788 38.3571C35.0788 38.289 35.0832 38.2213 35.0906 38.154C35.648 38.3424 36.2439 38.4461 36.864 38.4461C37.5154 38.4461 38.1406 38.3324 38.7218 38.1254C38.7314 38.202 38.7365 38.2794 38.7365 38.3571ZM36.864 37.1181C34.5344 37.1181 32.639 35.2228 32.639 32.8931C32.639 32.8141 32.6415 32.7357 32.6462 32.6579C32.664 32.3629 32.9088 32.1328 33.2044 32.1328H40.5238C40.8193 32.1328 41.0642 32.3629 41.0819 32.6579C41.0866 32.7357 41.0891 32.8141 41.0891 32.8931C41.0891 35.2228 39.1937 37.1181 36.864 37.1181ZM32.7262 27.6947C32.7262 26.1836 33.9556 24.9542 35.4667 24.9542H38.3485C39.8597 24.9542 41.0891 26.1836 41.0891 27.6947V30.8048H32.7261L32.7262 27.6947ZM10.0623 33.2852C10.1346 32.2097 10.9996 31.3361 12.0742 31.2533C12.2964 31.2362 12.5163 31.2518 12.7288 31.2995C13.4323 31.4575 14.1706 31.2131 14.6548 30.662C15.0711 30.1878 15.6713 29.9159 16.3014 29.9159C16.9314 29.9159 17.5318 30.1878 17.9482 30.662C18.4321 31.2131 19.1701 31.4572 19.8741 31.2995C20.0868 31.2518 20.3069 31.2362 20.5285 31.2533C21.6033 31.3361 22.4683 32.2096 22.5406 33.2852C22.582 33.9009 22.3742 34.4865 21.9555 34.9344C21.5363 35.3827 20.9677 35.6295 20.3543 35.6295C19.7947 35.6295 19.2624 35.4166 18.8584 35.0386C20.1614 34.3341 20.281 33.192 20.2864 33.1296C20.3182 32.7642 20.0479 32.4423 19.6826 32.4104C19.3172 32.3801 18.9953 32.6489 18.9634 33.0143C18.9626 33.0236 18.8351 33.9461 17.1728 34.1955C17.0451 34.1997 16.9163 34.2153 16.7878 34.2445C16.4709 34.3167 16.132 34.3167 15.8149 34.2445C15.1014 34.0824 14.3762 34.3148 13.9227 34.8516C13.5049 35.346 12.8947 35.6295 12.2486 35.6295C11.6351 35.6295 11.0666 35.3826 10.6474 34.9344C10.2287 34.4865 10.0209 33.9009 10.0623 33.2852ZM12.2486 36.9575C13.2864 36.9575 14.2664 36.5024 14.9371 35.7088C15.0691 35.5524 15.2923 35.4876 15.5204 35.5394C16.0303 35.6554 16.5726 35.6554 17.0823 35.5394C17.3103 35.4875 17.5339 35.5526 17.6658 35.7088C18.3365 36.5024 19.3164 36.9575 20.3543 36.9575C20.3988 36.9575 20.4431 36.9558 20.4874 36.9541C20.2097 39.0168 18.439 40.6128 16.3015 40.6128C14.1639 40.6128 12.3932 39.0168 12.1155 36.9541C12.1598 36.9558 12.2041 36.9575 12.2486 36.9575ZM16.3015 41.9407C16.9285 41.9407 17.5308 41.8348 18.0934 41.6424C17.9236 42.4762 17.1848 43.1057 16.3015 43.1057C15.4182 43.1057 14.6793 42.4762 14.5094 41.6423C15.0721 41.8348 15.6744 41.9407 16.3015 41.9407ZM12.5025 71.6561L12.17 63.1608H15.4162V71.6713H12.5184C12.5099 71.6713 12.5029 71.6646 12.5025 71.6561ZM24.8008 56.4053H21.8544C21.7084 56.4053 21.6293 56.3111 21.602 56.2705C21.5691 56.2216 21.5215 56.1208 21.5727 55.995C22.3864 53.9935 23.4854 49.9636 21.7019 45.4617C21.5669 45.1208 21.1814 44.9541 20.84 45.0889C20.499 45.224 20.3321 45.6098 20.4672 45.9508C22.0799 50.0215 21.0813 53.6778 20.3424 55.4949C20.1389 55.9955 20.1979 56.5626 20.5003 57.0119C20.8042 57.4636 21.3104 57.7333 21.8545 57.7333H22.2932L22.7351 61.8328H18.7943C18.4276 61.8328 18.1303 62.1301 18.1303 62.4968C18.1303 62.8635 18.4276 63.1608 18.7943 63.1608H19.9902L19.6577 71.6561C19.6573 71.6646 19.6503 71.6713 19.6418 71.6713H16.7441V62.4968C16.7441 62.1301 16.4468 61.8328 16.0801 61.8328H9.45717L10.4703 48.7565C10.8516 47.696 11.1489 46.6637 11.3531 45.6738C11.4272 45.3146 11.1961 44.9634 10.8369 44.8893C10.4768 44.8153 10.1266 45.0464 10.0525 45.4055C9.46247 48.2664 8.05386 51.5178 5.97877 54.8082C5.90625 54.9232 5.76501 54.9753 5.63424 54.9346L3.16025 54.1652C3.03726 54.127 2.98604 54.0344 2.96647 53.9826C2.94724 53.9318 2.92475 53.8306 2.99003 53.7233C4.88594 50.6069 6.05647 47.9017 7.03008 44.3864C7.84084 41.4588 10.7152 40.3391 11.9134 39.9935C11.9354 39.9871 11.9571 39.9797 11.9784 39.9711L12.0418 39.9454C12.3667 40.3337 12.7435 40.6769 13.1616 40.9646C13.1513 41.0681 13.1446 41.1722 13.1446 41.2768C13.1446 43.0175 14.5608 44.4337 16.3015 44.4337C18.0422 44.4337 19.4583 43.0175 19.4583 41.2768C19.4583 41.1723 19.4515 41.0682 19.4413 40.9646C19.8049 40.7144 20.1373 40.4223 20.4315 40.095C21.8746 40.616 23.7092 41.7027 24.8592 43.965C26.3582 46.9137 26.3383 51.0971 24.8008 56.4053ZM47.5116 55.5848C47.4192 55.6315 47.3145 55.6387 47.2169 55.6053C47.1194 55.572 47.0414 55.5023 46.9972 55.4093C46.5815 54.5347 45.9519 53.1238 45.3102 51.3598C45.2952 51.3203 43.8017 47.3716 42.8231 44.1252C42.7172 43.7741 42.3467 43.5754 41.9957 43.6811C41.8052 43.7386 41.66 43.8742 41.5835 44.0421C41.5817 44.0461 41.5796 44.0499 41.5779 44.054C41.5723 44.0669 41.5676 44.0801 41.5628 44.0934C41.5603 44.1004 41.5575 44.1072 41.5552 44.1142C41.5514 44.1262 41.5483 44.1385 41.5452 44.1507C41.5429 44.1591 41.5405 44.1674 41.5386 44.176C41.5359 44.1883 41.5341 44.2008 41.5321 44.2133C41.5307 44.2219 41.5291 44.2304 41.528 44.2391C41.5264 44.2526 41.5257 44.2662 41.525 44.2799C41.5245 44.2877 41.5238 44.2954 41.5236 44.3033C41.5233 44.3176 41.524 44.332 41.5246 44.3464C41.5249 44.3528 41.5246 44.3591 41.5251 44.3655L41.5258 44.3757C41.5258 44.3761 41.5259 44.3765 41.5259 44.3769L41.89 49.3358H40.1909C39.8242 49.3358 39.5269 49.6331 39.5269 49.9998C39.5269 50.3664 39.8242 50.6637 40.1909 50.6637H41.9875L43.5178 71.5052C43.5219 71.561 43.4977 71.5997 43.4766 71.6224C43.4556 71.645 43.4188 71.672 43.3629 71.672H39.3451C39.2632 71.672 39.1951 71.6079 39.1902 71.5261L38.4017 58.5126C38.3504 57.6679 37.6474 57.0062 36.8011 57.0062C35.9548 57.0062 35.2518 57.6679 35.2006 58.5128L34.4134 71.5261C34.4084 71.6079 34.3403 71.672 34.2584 71.672H30.2354C30.1797 71.672 30.143 71.6452 30.1219 71.6227C30.101 71.6003 30.0767 71.5618 30.0804 71.5062L31.4866 50.6637H37.4201C37.7868 50.6637 38.0841 50.3664 38.0841 49.9998C38.0841 49.6331 37.7868 49.3358 37.4201 49.3358H31.5762L31.9118 44.3615C31.9365 43.9957 31.6599 43.6791 31.2941 43.6544C30.9264 43.6287 30.6116 43.9063 30.5869 44.2722L29.7683 56.4052H26.1801C27.4169 51.9717 27.5114 48.624 26.9791 46.0983L27.4813 41.3202C27.5535 40.636 27.7196 40.0029 27.9749 39.4386C29.0839 36.9885 31.3878 36.3075 32.3538 36.1264C32.7599 36.6912 33.2689 37.1767 33.8537 37.5556C33.7855 37.8161 33.7508 38.0857 33.7508 38.3571C33.7508 40.0978 35.167 41.514 36.9076 41.514C38.6482 41.514 40.0645 40.0978 40.0645 38.3571C40.0645 38.0849 40.0297 37.8144 39.9609 37.5529C39.957 37.5379 39.9519 37.5235 39.947 37.509C40.4641 37.1625 40.9199 36.7315 41.2948 36.2359C41.3045 36.2388 41.314 36.2423 41.324 36.2447L41.4792 36.2829L41.4875 36.2853C42.7722 36.6556 45.1634 37.3451 46.2837 41.0638C47.5913 45.4047 49.1288 50.2901 50.616 53.6112C50.699 53.7967 50.6219 54.0137 50.4405 54.1054C49.6026 54.5287 48.3606 55.1562 47.5116 55.5848Z" fill="#002E69"/>
<path d="M37.6141 34.461C36.8983 34.9166 36.2978 34.5279 36.2277 34.4791C35.9819 34.3017 35.6386 34.355 35.4585 34.5996C35.2772 34.8456 35.3297 35.192 35.5757 35.3733C35.6092 35.398 36.1517 35.788 36.9175 35.788C37.3032 35.788 37.7456 35.689 38.2083 35.3946C38.466 35.2306 38.5421 34.8886 38.3781 34.6307C38.214 34.3729 37.8718 34.2968 37.6141 34.461Z" fill="#002E69"/>
<path d="M14.9695 38.9406C15.003 38.9652 15.5454 39.3553 16.3112 39.3553C16.697 39.3553 17.1394 39.2563 17.6021 38.9619C17.8598 38.7979 17.9359 38.4559 17.7718 38.198C17.6078 37.9402 17.2657 37.8641 17.0079 38.0283C16.2922 38.4839 15.6917 38.0952 15.6215 38.0464C15.3758 37.8689 15.0324 37.9223 14.8523 38.1669C14.671 38.4129 14.7234 38.7593 14.9695 38.9406Z" fill="#002E69"/>
<path d="M17.8813 16.0345C19.7874 16.0345 21.338 14.4838 21.338 12.5778V12.0761C21.338 11.7094 21.0407 11.4121 20.674 11.4121H15.0886C14.7219 11.4121 14.4246 11.7094 14.4246 12.0761V12.5778C14.4246 14.4838 15.9753 16.0345 17.8813 16.0345ZM20.0039 12.7401C19.9208 13.8383 19.0005 14.7065 17.8813 14.7065C16.7622 14.7065 15.8418 13.8383 15.7587 12.7401H20.0039Z" fill="#002E69"/>
<path d="M19.7397 10.5198C20.1064 10.5198 20.4037 10.2225 20.4037 9.85579V9.83758C20.4037 9.47089 20.1064 9.17358 19.7397 9.17358C19.373 9.17358 19.0757 9.47089 19.0757 9.83758V9.85579C19.0757 10.2225 19.373 10.5198 19.7397 10.5198Z" fill="#002E69"/>
<path d="M15.8605 10.5198C16.2272 10.5198 16.5245 10.2225 16.5245 9.85579V9.83758C16.5245 9.47089 16.2272 9.17358 15.8605 9.17358C15.4938 9.17358 15.1965 9.47089 15.1965 9.83758V9.85579C15.1965 10.2225 15.4938 10.5198 15.8605 10.5198Z" fill="#002E69"/>
<path d="M10.1 19.208H13.4229V21.6067C13.4229 21.8622 13.5694 22.095 13.7998 22.2055C13.8911 22.2493 13.9892 22.2707 14.0867 22.2707C14.2352 22.2707 14.3824 22.221 14.5026 22.1245L17.5467 19.6798C17.9255 19.3755 18.4017 19.208 18.8877 19.208H25.3369C26.4397 19.208 27.3368 18.3108 27.3368 17.2081V15.3322H33.1188L36.7504 18.2488C36.8706 18.3453 37.0178 18.3951 37.1663 18.3951C37.2638 18.3951 37.3619 18.3736 37.4532 18.3298C37.6836 18.2193 37.8302 17.9865 37.8302 17.7311V15.3322H40.6598C41.7626 15.3322 42.6597 14.4351 42.6597 13.3324V1.99987C42.6597 0.897156 41.7626 0 40.6598 0H25.4228C24.3201 0 23.423 0.897156 23.423 1.99987V6.05994H10.1C8.99721 6.05994 8.1001 6.9571 8.1001 8.05982V17.2081C8.1001 18.3108 8.9972 19.208 10.1 19.208ZM24.751 1.99987C24.751 1.6294 25.0524 1.32799 25.4228 1.32799H40.6598C41.0303 1.32799 41.3317 1.6294 41.3317 1.99987V13.3324C41.3317 13.7028 41.0303 14.0043 40.6598 14.0043H37.731C37.0534 14.0043 36.5022 14.5555 36.5022 15.233V16.3462L33.923 14.2749C33.7057 14.1004 33.4325 14.0043 33.1538 14.0043H25.4228C25.0524 14.0043 24.751 13.7028 24.751 13.3324V1.99987ZM9.42809 8.05981C9.42809 7.68933 9.7295 7.38792 10.1 7.38792H23.423V13.3324C23.423 14.4351 24.3201 15.3322 25.4228 15.3322H26.0088V17.2081C26.0088 17.5786 25.7074 17.88 25.3369 17.88H18.8877C18.1004 17.88 17.3288 18.1515 16.7152 18.6444L14.7508 20.2219V19.1087C14.7508 18.4312 14.1996 17.88 13.5221 17.88H10.1C9.72948 17.88 9.42808 17.5786 9.42808 17.2081L9.42809 8.05981Z" fill="#002E69"/>
</g>
</g>
<defs>
<clipPath id="clip0_6_2">
<rect width="54" height="73" fill="white"/>
</clipPath>
</defs>
</svg>
