<svg width="14" height="22" viewBox="0 0 14 22" fill="none" xmlns="http://www.w3.org/2000/svg">
<g clip-path="url(#clip0_12_14)">
<path d="M1 1C1 1.38439 1.00198 1.7546 1.0062 2.11111M1.0062 2.11111C1.09353 9.48354 2.14164 11 6.55212 11C9.79992 11 11.2278 12.0964 11.7901 15.4444C11.9888 16.6277 12.0794 18.0922 12.1039 19.8889C12.1088 20.246 12.1111 20.6162 12.1111 21M1.0062 2.11111H12.1049M3.54474 15.4444H1.3223M1.3223 15.4444C1.88614 12.0964 3.31602 11 6.55899 11C10.9629 11 12.017 9.48354 12.1049 2.11111M1.3223 15.4444C1.08343 16.8629 1 18.6854 1 21M12.1049 2.11111C12.1091 1.7546 12.1111 1.38439 12.1111 1" stroke="white" stroke-width="2" stroke-linecap="round"/>
<path opacity="0.4" d="M11.7901 15.4446H7.10733M5.44443 19.889H12.1039M1.29913 6.55566H5.44443" stroke="white" stroke-width="2" stroke-linecap="round"/>
</g>
<defs>
<clipPath id="clip0_12_14">
<rect width="14" height="22" fill="white"/>
</clipPath>
</defs>
</svg>
