<svg width="25" height="28" viewBox="0 0 25 28" fill="none" xmlns="http://www.w3.org/2000/svg">
<g clip-path="url(#clip0_12_20)">
<path opacity="0.4" d="M4.69508 20.2469C4.45273 19.7506 3.85395 19.5448 3.35768 19.7872C2.86142 20.0295 2.65558 20.6283 2.89794 21.1246L4.69508 20.2469ZM22.1672 16.2644C22.1672 21.3044 18.0561 25.4 12.9726 25.4V27.4C19.1497 27.4 24.1672 22.4199 24.1672 16.2644H22.1672ZM14.9746 7.37354C19.0505 8.33077 22.1672 11.9677 22.1672 16.2644H24.1672C24.1672 10.9757 20.3482 6.58112 15.4318 5.42651L14.9746 7.37354ZM12.9726 25.4C9.33083 25.4 6.18462 23.297 4.69508 20.2469L2.89794 21.1246C4.71212 24.8394 8.54235 27.4 12.9726 27.4V25.4Z" fill="white"/>
<path d="M1 16C0.447715 16 0 16.4477 0 17C0 17.5523 0.447715 18 1 18V16ZM8.35294 18C8.90523 18 9.35294 17.5523 9.35294 17C9.35294 16.4477 8.90523 16 8.35294 16V18ZM1.98039 20C1.42811 20 0.980392 20.4477 0.980392 21C0.980392 21.5523 1.42811 22 1.98039 22V20ZM17.6667 22C18.219 22 18.6667 21.5523 18.6667 21C18.6667 20.4477 18.219 20 17.6667 20V22ZM10.4675 3L11.1816 2.29993C10.9935 2.10809 10.7362 2 10.4675 2C10.1989 2 9.94151 2.10809 9.75344 2.29993L10.4675 3ZM13.2405 5.82843L13.9546 6.5285C14.3358 6.13964 14.3358 5.51722 13.9546 5.12836L13.2405 5.82843ZM7.15178 12.0389L6.43771 12.739C6.62578 12.9308 6.88313 13.0389 7.15178 13.0389C7.42043 13.0389 7.67778 12.9308 7.86585 12.739L7.15178 12.0389ZM4.37881 9.21047L3.66474 8.5104C3.2835 8.89926 3.2835 9.52168 3.66474 9.91054L4.37881 9.21047ZM13.5171 0.302513C13.1319 -0.0932525 12.4988 -0.101808 12.103 0.283404C11.7073 0.668616 11.6987 1.30172 12.0839 1.69749L13.5171 0.302513ZM14.4904 4.16988C14.8756 4.56564 15.5087 4.57419 15.9045 4.18898C16.3002 3.80377 16.3088 3.17066 15.9236 2.7749L14.4904 4.16988ZM7.86585 11.3388L5.09288 8.5104L3.66474 9.91054L6.43771 12.739L7.86585 11.3388ZM5.09288 9.91054L11.1816 3.70007L9.75344 2.29993L3.66474 8.5104L5.09288 9.91054ZM12.0839 1.69749L13.2871 2.93368L14.7203 1.5387L13.5171 0.302513L12.0839 1.69749ZM13.2871 2.93368L14.4904 4.16988L15.9236 2.7749L14.7203 1.5387L13.2871 2.93368ZM1 18H4.1072V16H1V18ZM4.1072 18H8.35294V16H4.1072V18ZM1.98039 22H10.5305V20H1.98039V22ZM10.5305 22H17.6667V20H10.5305V22ZM12.5264 5.12836L11.3778 6.29993L12.8059 7.70007L13.9546 6.5285L12.5264 5.12836ZM11.3778 6.29993L6.43771 11.3388L7.86585 12.739L12.8059 7.70007L11.3778 6.29993ZM9.75344 3.70007L11.1399 5.11428L12.5681 3.71414L11.1816 2.29993L9.75344 3.70007ZM11.1399 5.11428L12.5264 6.5285L13.9546 5.12836L12.5681 3.71414L11.1399 5.11428ZM13.292 1.53372L12.2172 2.62273L13.6406 4.02768L14.7155 2.93867L13.292 1.53372ZM12.2172 2.62273L11.1423 3.71174L12.5657 5.11669L13.6406 4.02768L12.2172 2.62273Z" fill="white"/>
</g>
<defs>
<clipPath id="clip0_12_20">
<rect width="25" height="28" fill="white"/>
</clipPath>
</defs>
</svg>
