<svg width="83" height="58" viewBox="0 0 83 58" fill="none" xmlns="http://www.w3.org/2000/svg">
<g clip-path="url(#clip0_4_2)">
<path d="M33.4407 37.9508C34.9378 33.8337 34.1281 30.7761 33.1588 28.9132C32.3623 27.3823 31.344 26.4038 30.8222 25.9662C31.1133 25.3759 31.3603 24.7622 31.5645 24.131C33.7239 24.1161 35.476 22.3656 35.476 20.2153C35.476 19.1402 35.0361 18.0894 34.2885 17.3427C34.2836 17.3284 34.2779 17.3144 34.2721 17.3005C34.2031 10.6909 32.2845 5.84026 28.564 2.88186C25.5091 0.452547 22.1046 0.0654785 20.7828 0.0117611C20.3989 -0.00392036 19.9547 -0.00392036 19.5645 0.0117611C18.2209 0.0653481 14.7605 0.451907 11.6543 2.87799C7.85486 5.8456 5.9012 10.7184 5.84247 17.3618C5.10646 18.1072 4.67406 19.1493 4.67406 20.2153C4.67406 22.3583 6.41444 24.1038 8.56363 24.1304C8.78239 24.8148 9.05033 25.4741 9.36361 26.1033C8.81201 26.592 7.90777 27.5259 7.18596 28.9132C6.22525 30.7595 5.42219 33.7798 6.86557 37.8417C2.63327 40.4558 0 45.0673 0 50.1361V51.0986C0 52.5047 1.06944 54.523 6.16402 56.1527C9.80136 57.3163 14.5966 57.9689 19.7019 57.9986C19.7113 57.9989 19.7207 58 19.7302 58C19.7384 58 19.7463 57.999 19.7545 57.9988C19.8584 57.9993 19.9622 58 20.0664 58C25.3077 58 30.245 57.344 33.9688 56.1527C39.0634 54.523 40.1329 52.5047 40.1329 51.0986V50.1361C40.1329 45.137 37.5712 40.5829 33.4407 37.9508ZM31.8882 29.5667C33.0614 31.8217 33.1583 34.3972 32.1796 37.2304C31.8614 37.0695 31.5357 36.919 31.2027 36.78L26.256 34.7158C26.1698 34.4319 25.8303 33.1136 26.2683 31.2022C26.3512 31.1461 26.4342 31.0889 26.5172 31.0298C27.9596 30.0019 29.173 28.7084 30.1075 27.2341C30.5649 27.651 31.2948 28.4264 31.8882 29.5667ZM27.1902 36.8013C28.7373 39.3078 27.3014 41.6083 25.8245 43.0969C25.5849 43.3383 25.2512 43.4578 24.9127 43.4255C24.5714 43.393 24.2669 43.2115 24.0769 42.9276L21.1267 38.5185C23.5795 38.3328 25.4731 37.4306 26.0971 36.192L27.1095 36.6145C27.127 36.6787 27.1534 36.7417 27.1902 36.8013ZM12.8865 36.8013C12.9181 36.7501 12.9416 36.6963 12.9589 36.6414L14.2213 36.1146C14.7832 37.3476 16.5918 38.2615 18.9658 38.495L16 42.9276C15.81 43.2115 15.5053 43.393 15.1641 43.4255C14.8239 43.4585 14.4919 43.3382 14.2524 43.0969C11.5764 40.3999 12.0326 38.1847 12.8865 36.8013ZM24.8885 35.1336V35.2867C24.8885 35.668 24.4473 36.1034 23.7084 36.4515C22.791 36.8838 21.5045 37.1316 20.1785 37.1316C18.8526 37.1316 17.566 36.8838 16.6487 36.4515C15.9097 36.1034 15.4686 35.668 15.4686 35.2867V35.1336C15.5804 34.7688 15.8424 33.7101 15.6962 32.188C16.3345 32.4637 17.2775 32.7966 18.4279 32.9813C18.9419 33.0637 19.524 33.1197 20.1582 33.1197C21.4857 33.1197 23.0404 32.8737 24.6683 32.1129C24.506 33.6754 24.7748 34.7628 24.8885 35.1336ZM12.5381 3.9965C15.3158 1.82698 18.4173 1.48099 19.6219 1.43296C19.9755 1.41889 20.3775 1.41889 20.7243 1.43296C21.9053 1.48088 24.9462 1.82634 27.6706 3.99262C30.9251 6.58056 32.6577 10.8515 32.8295 16.6941C28.4488 15.6836 25.8301 12.6637 25.015 11.5862L26.7429 9.97569C27.0312 9.70703 27.0457 9.25698 26.7755 8.97044C26.5054 8.68384 26.0525 8.66943 25.7645 8.93798L23.8658 10.7078C23.8528 10.72 23.8394 10.7335 23.8273 10.7466C23.8127 10.7623 22.3393 12.3409 19.5042 13.8958C16.977 15.2819 12.8324 16.9245 7.27699 17.0228C7.39463 11.0135 9.16284 6.63279 12.5381 3.9965ZM6.10464 20.2153C6.10464 19.5617 6.35157 18.9239 6.7761 18.4497C12.92 18.445 17.4964 16.6313 20.2555 15.1081C21.9641 14.1648 23.2002 13.2221 23.9633 12.5686C25.0281 13.9565 28.0303 17.256 33.0844 18.2006C33.1215 18.2125 33.1709 18.2453 33.2312 18.3016C33.7431 18.7859 34.0454 19.4912 34.0454 20.2153C34.0454 21.4502 33.1371 22.4756 31.9503 22.6725C31.9685 22.574 31.9863 22.4732 32.0033 22.368L32.1663 21.244C32.2226 20.8552 31.9514 20.4947 31.5604 20.4387C31.169 20.3825 30.8067 20.6523 30.7504 21.0411L30.5891 22.1538C30.5563 22.357 30.4659 22.7683 30.4592 22.7957C29.7697 25.6569 28.0738 28.1706 25.6839 29.8736C23.5486 31.3952 21.203 31.971 18.7115 31.5858C16.8233 31.2937 15.5496 30.5301 15.5384 30.5233C15.524 30.5146 15.5094 30.5063 15.4945 30.4985C13.5866 29.5047 12.0122 27.9374 10.9284 26.0066C10.9111 25.9663 10.8894 25.9272 10.8639 25.8895C10.3775 25.0002 9.9944 24.0358 9.72971 23.016C9.73175 23.0154 9.73396 23.0148 9.73599 23.0143C9.67255 22.7689 9.61433 22.4842 9.5627 22.1651L9.39971 21.0411C9.34336 20.6522 8.97943 20.3826 8.58966 20.4386C8.19872 20.4947 7.92745 20.8552 7.98381 21.244L8.14854 22.3793C8.16477 22.4799 8.18172 22.5774 8.19924 22.6724C7.01274 22.4753 6.10464 21.45 6.10464 20.2153ZM8.42631 29.6255C8.95876 28.5822 9.6187 27.8312 10.0866 27.3788C11.1305 29.006 12.5048 30.3694 14.123 31.3574C14.4719 33.0116 14.2399 34.1971 14.1313 34.6096L8.93028 36.78C8.65989 36.8929 8.39567 37.0151 8.13507 37.1425C7.19748 34.3694 7.29399 31.8437 8.42631 29.6255ZM1.43058 51.0986V50.1361C1.43058 44.8609 4.59176 40.1331 9.484 38.0915L11.0268 37.4477C10.345 39.6303 11.0989 41.9439 13.2339 44.0958C13.7186 44.5843 14.3705 44.8532 15.0528 44.8532C15.1351 44.8532 15.2178 44.8493 15.3009 44.8414C16.0726 44.7677 16.7615 44.3573 17.191 43.7154L19.0149 40.9894V56.5686C8.59874 56.3916 1.43058 53.6066 1.43058 51.0986ZM38.7023 51.0986C38.7023 53.6602 31.2242 56.5105 20.4455 56.5761V40.0683L22.8858 43.7155C23.3153 44.3572 24.004 44.7676 24.7758 44.8414C24.8588 44.8493 24.9417 44.8532 25.0241 44.8532C25.7061 44.8532 26.3582 44.5843 26.8429 44.0958C28.9868 41.935 29.7379 39.6112 29.0412 37.4206L30.649 38.0915C35.5412 40.1331 38.7023 44.8609 38.7023 50.1361V51.0986Z" fill="#002E69"/>
<path d="M74.0699 36.78L69.1232 34.7158C69.037 34.4319 68.6975 33.1136 69.1355 31.2022C69.2184 31.1461 69.3014 31.0889 69.3844 31.0298C71.7701 29.3297 73.5336 26.9064 74.4317 24.131C76.5911 24.1161 78.3432 22.3656 78.3432 20.2153C78.3432 19.1323 77.8971 18.0736 77.1395 17.326C77.0752 10.7035 75.1565 5.84408 71.4312 2.88188C68.3763 0.452547 64.9718 0.0654785 63.65 0.0117611C63.2662 -0.00392036 62.822 -0.00392036 62.4317 0.0117611C61.0881 0.0653481 57.6277 0.451907 54.5215 2.87799C50.7221 5.84555 48.7685 10.7183 48.7097 17.3615C47.9736 18.107 47.5413 19.1493 47.5413 20.2152C47.5413 22.3582 49.2816 24.1038 51.4308 24.1304C52.4119 27.2005 54.3842 29.7662 56.9901 31.3574C57.339 33.0116 57.1071 34.1971 56.9984 34.6096L51.7975 36.78C46.3725 39.0439 42.8672 44.2865 42.8672 50.1361V51.0986C42.8672 52.5047 43.9366 54.523 49.0312 56.1527C52.755 57.344 57.6923 58 62.9336 58C68.1749 58 73.1122 57.344 76.836 56.1527C81.9306 54.523 83 52.5047 83 51.0986V50.1361C83 44.2865 79.4947 39.0439 74.0699 36.78ZM70.0574 36.8013C71.6045 39.3078 70.1686 41.6083 68.6917 43.0969C68.4522 43.3383 68.1192 43.4578 67.7799 43.4255C67.4386 43.393 67.1341 43.2115 66.9441 42.9276L63.9938 38.5185C66.4467 38.3328 68.3403 37.4306 68.9643 36.192L69.9767 36.6145C69.9942 36.6787 70.0206 36.7417 70.0574 36.8013ZM55.7537 36.8013C55.7853 36.7501 55.8088 36.6963 55.8261 36.6414L57.0884 36.1146C57.6504 37.3476 59.459 38.2615 61.833 38.495L58.8671 42.9276C58.6771 43.2115 58.3725 43.393 58.0312 43.4255C57.6907 43.4585 57.3589 43.3382 57.1195 43.0969C54.4436 40.3999 54.8998 38.1847 55.7537 36.8013ZM67.7557 35.1336V35.2867C67.7557 35.668 67.3145 36.1034 66.5756 36.4515C65.6582 36.8838 64.3717 37.1316 63.0457 37.1316C61.7198 37.1316 60.4332 36.8838 59.5159 36.4515C58.7769 36.1034 58.3358 35.668 58.3358 35.2867V35.1336C58.4476 34.7688 58.7096 33.7101 58.5634 32.188C59.2017 32.4637 60.1446 32.7966 61.2951 32.9813C61.8091 33.0637 62.3912 33.1197 63.0254 33.1197C64.3529 33.1197 65.9075 32.8737 67.5355 32.1129C67.3731 33.6754 67.642 34.7628 67.7557 35.1336ZM75.6766 16.1664C74.477 15.1229 72.7251 13.3107 72.3502 11.362C71.8551 8.78917 70.5719 7.29626 68.3118 6.66386C67.2196 6.35828 66.4655 5.73296 66.0625 5.32041C66.7607 4.4411 67.2584 3.39662 67.482 2.25439C68.4699 2.63468 69.5256 3.1878 70.5378 3.99262C73.6935 6.502 75.4181 10.5939 75.6766 16.1664ZM55.4053 3.9965C58.1829 1.82698 61.2845 1.48099 62.4891 1.43296C62.8428 1.41889 63.2448 1.41889 63.5915 1.43296C64.1212 1.45445 65.0256 1.53646 66.1072 1.81509C65.6688 4.47703 63.3864 6.52267 60.6461 6.63875C58.3475 6.73616 56.5574 7.57518 55.4696 9.06518C54.7858 10.0018 54.1816 11.0705 53.5972 12.1039C52.5289 13.9935 51.5092 15.7955 50.1554 16.6066C50.3453 10.8111 52.1085 6.5715 55.4053 3.9965ZM52.6956 23.3764L52.7117 23.3805C52.6051 23.0715 52.5098 22.6588 52.4299 22.1651L52.2669 21.0411C52.2105 20.6522 51.8475 20.3826 51.4568 20.4387C51.0659 20.4947 50.7946 20.8552 50.851 21.244L51.0157 22.3793C51.032 22.48 51.0489 22.5774 51.0664 22.6724C49.8799 22.4753 48.9718 21.45 48.9718 20.2153C48.9718 19.4969 49.2694 18.7971 49.774 18.3132C52.0982 17.6565 53.4939 15.1895 54.8443 12.8009C55.4086 11.8028 55.9922 10.7706 56.6273 9.90067C57.2006 9.11547 58.3737 8.15867 60.7071 8.05982C62.3599 7.98978 63.8788 7.35629 65.0695 6.34624C65.6096 6.8917 66.558 7.65077 67.9243 8.03303C69.6495 8.51577 70.5529 9.59133 70.945 11.6293C71.635 15.2145 75.8426 18.1335 76.0213 18.2561L76.0236 18.2573C76.0475 18.2736 76.0725 18.2882 76.0984 18.3016C76.6104 18.7859 76.9126 19.4912 76.9126 20.2153C76.9126 21.4502 76.0043 22.4755 74.8177 22.6725C74.8358 22.5739 74.8536 22.4732 74.8705 22.368L75.0335 21.244C75.0898 20.8552 74.8186 20.4947 74.4276 20.4387C74.0358 20.3825 73.6738 20.6523 73.6176 21.0411L73.4564 22.1538C73.4236 22.3563 73.3885 22.5431 73.3515 22.7149C73.3418 22.7411 73.3331 22.7679 73.3264 22.7957C72.6369 25.6569 70.941 28.1706 68.5511 29.8736C66.4157 31.3952 64.0698 31.971 61.5788 31.5858C59.6905 31.2937 58.4168 30.5301 58.4056 30.5233C58.3913 30.5146 58.3766 30.5063 58.3617 30.4985C55.6465 29.0842 53.6064 26.5091 52.6956 23.3764ZM81.5695 51.0986C81.5695 53.6901 73.916 56.5777 62.9336 56.5777C51.9513 56.5777 44.2978 53.6901 44.2978 51.0986V50.1361C44.2978 44.8609 47.4589 40.1331 52.3512 38.0915L53.894 37.4477C53.2122 39.6303 53.966 41.9439 56.1011 44.0958C56.5858 44.5843 57.2377 44.8532 57.9199 44.8532C58.0022 44.8532 58.085 44.8493 58.168 44.8414C58.9398 44.7677 59.6287 44.3573 60.0581 43.7154L62.9056 39.4598L65.753 43.7154C66.1825 44.3572 66.8712 44.7676 67.643 44.8414C67.726 44.8493 67.8089 44.8532 67.8913 44.8532C68.5733 44.8532 69.2254 44.5843 69.7101 44.0958C71.854 41.935 72.6051 39.6112 71.9084 37.4206L73.5162 38.0915C78.4084 40.1331 81.5695 44.8609 81.5695 50.1361V51.0986Z" fill="#002E69"/>
<path d="M34.2607 46.2215H32.7628V44.7322C32.7628 44.1965 32.3244 43.7606 31.7856 43.7606H30.1787C29.6399 43.7606 29.2014 44.1965 29.2014 44.7322V46.2215H27.7036C27.1648 46.2215 26.7263 46.6574 26.7263 47.1931V48.7908C26.7263 49.3265 27.1648 49.7624 27.7036 49.7624H29.2014V51.2516C29.2014 51.7874 29.6399 52.2233 30.1787 52.2233H31.7856C32.3244 52.2233 32.7628 51.7874 32.7628 51.2516V49.7624H34.2607C34.7995 49.7624 35.238 49.3265 35.238 48.7908V47.1931C35.238 46.6574 34.7996 46.2215 34.2607 46.2215ZM33.9266 48.4586H32.4286C31.8898 48.4586 31.4514 48.8944 31.4514 49.4302V50.9194H30.5128V49.4302C30.5128 48.8944 30.0744 48.4586 29.5356 48.4586H28.0377V47.5253H29.5356C30.0744 47.5253 30.5128 47.0895 30.5128 46.5537V45.0645H31.4514V46.5537C31.4514 47.0895 31.8898 47.5253 32.4286 47.5253H33.9266V48.4586Z" fill="#002E69"/>
<path d="M20.0532 22.8058C20.4482 22.8058 20.7685 22.4873 20.7685 22.0946V21.6963C20.7685 21.3035 20.4482 20.9851 20.0532 20.9851C19.6582 20.9851 19.3379 21.3035 19.3379 21.6963V22.0946C19.3379 22.4873 19.6582 22.8058 20.0532 22.8058Z" fill="#002E69"/>
<path d="M17.1824 25.8166C17.5422 27.3415 18.5929 28.2152 20.0665 28.2152H20.0763C21.5514 28.2113 22.6046 27.3376 22.9657 25.8181C23.0504 25.462 22.9681 25.0933 22.7399 24.8065C22.5118 24.52 22.1702 24.3556 21.8026 24.3556H18.346C17.979 24.3556 17.6376 24.5196 17.4097 24.8055C17.1814 25.0918 17.0985 25.4603 17.1824 25.8166ZM18.346 25.5409L21.8055 25.5455C21.5721 26.5281 20.9891 27.0275 20.0731 27.0299C19.733 27.0295 18.694 27.0336 18.3438 25.541L18.346 25.5409Z" fill="#002E69"/>
<path d="M24.0973 22.5922C24.7855 22.5922 25.3433 21.9432 25.3433 21.1425C25.3433 20.3418 24.7855 19.6927 24.0973 19.6927C23.4092 19.6927 22.8513 20.3418 22.8513 21.1425C22.8513 21.9432 23.4092 22.5922 24.0973 22.5922Z" fill="#002E69"/>
<path d="M16.0092 22.5922C16.6973 22.5922 17.2552 21.9432 17.2552 21.1425C17.2552 20.3418 16.6973 19.6927 16.0092 19.6927C15.321 19.6927 14.7632 20.3418 14.7632 21.1425C14.7632 21.9432 15.321 22.5922 16.0092 22.5922Z" fill="#002E69"/>
<path d="M12.5809 46.0085H7.19234C6.79732 46.0085 6.47705 46.327 6.47705 46.7197V49.3895C6.47705 51.2587 8.00659 52.7795 9.88667 52.7795C11.7668 52.7795 13.2962 51.2587 13.2962 49.3895V46.7197C13.2962 46.327 12.9759 46.0085 12.5809 46.0085ZM11.8656 49.3895C11.8656 50.4745 10.9779 51.3571 9.88667 51.3571C8.79546 51.3571 7.90763 50.4745 7.90763 49.3895V47.4309H11.8656V49.3895Z" fill="#002E69"/>
<path d="M62.9336 22.8058C63.3286 22.8058 63.6488 22.4873 63.6488 22.0946V21.6963C63.6488 21.3035 63.3286 20.9851 62.9336 20.9851C62.5385 20.9851 62.2183 21.3035 62.2183 21.6963V22.0946C62.2183 22.4873 62.5385 22.8058 62.9336 22.8058Z" fill="#002E69"/>
<path d="M60.0628 25.8166C60.4225 27.3415 61.4732 28.2152 62.9469 28.2152H62.9566C64.4318 28.2113 65.485 27.3376 65.8461 25.8181C65.9307 25.462 65.8484 25.0933 65.6203 24.8065C65.3922 24.52 65.0506 24.3556 64.6829 24.3556H61.2264C60.8593 24.3556 60.518 24.5196 60.29 24.8055C60.0617 25.0918 59.9788 25.4603 60.0628 25.8166ZM61.2264 25.5409L64.6859 25.5455C64.4524 26.5281 63.8695 27.0275 62.9535 27.0299C62.6133 27.0295 61.5744 27.0336 61.2242 25.541L61.2264 25.5409Z" fill="#002E69"/>
<path d="M66.9774 22.5922C67.6656 22.5922 68.2234 21.9432 68.2234 21.1425C68.2234 20.3418 67.6656 19.6927 66.9774 19.6927C66.2893 19.6927 65.7314 20.3418 65.7314 21.1425C65.7314 21.9432 66.2893 22.5922 66.9774 22.5922Z" fill="#002E69"/>
<path d="M58.8896 22.5922C59.5777 22.5922 60.1356 21.9432 60.1356 21.1425C60.1356 20.3418 59.5777 19.6927 58.8896 19.6927C58.2014 19.6927 57.6436 20.3418 57.6436 21.1425C57.6436 21.9432 58.2014 22.5922 58.8896 22.5922Z" fill="#002E69"/>
<path d="M77.7273 46.2215H76.2293V44.7322C76.2293 44.1965 75.791 43.7606 75.2522 43.7606H73.6452C73.1064 43.7606 72.668 44.1965 72.668 44.7322V46.2215H71.1701C70.6313 46.2215 70.1929 46.6574 70.1929 47.1931V48.7908C70.1929 49.3265 70.6313 49.7624 71.1701 49.7624H72.668V51.2516C72.668 51.7874 73.1064 52.2233 73.6452 52.2233H75.2522C75.791 52.2233 76.2293 51.7874 76.2293 51.2516V49.7624H77.7273C78.2661 49.7624 78.7045 49.3265 78.7045 48.7908V47.1931C78.7045 46.6574 78.2661 46.2215 77.7273 46.2215ZM77.3932 48.4586H75.8952C75.3564 48.4586 74.9179 48.8944 74.9179 49.4302V50.9194H73.9794V49.4302C73.9794 48.8944 73.5409 48.4586 73.0021 48.4586H71.5042V47.5253H73.0021C73.5409 47.5253 73.9794 47.0895 73.9794 46.5537V45.0645H74.9179V46.5537C74.9179 47.0895 75.3564 47.5253 75.8952 47.5253H77.3932V48.4586Z" fill="#002E69"/>
<path d="M63.6733 38.495H62.1936V57.9985H63.6733V38.495Z" fill="#002E69"/>
</g>
<defs>
<clipPath id="clip0_4_2">
<rect width="83" height="58" fill="white"/>
</clipPath>
</defs>
</svg>
