<svg width="49" height="49" viewBox="0 0 49 49" fill="none" xmlns="http://www.w3.org/2000/svg">
<g clip-path="url(#clip0_14_26)">
<path d="M24.5 49C38.031 49 49 38.031 49 24.5C49 10.969 38.031 0 24.5 0C10.969 0 0 10.969 0 24.5C0 38.031 10.969 49 24.5 49Z" fill="#9134AF"/>
<path d="M19 15C19 15.3844 19.002 15.7546 19.0062 16.1111M19.0062 16.1111C19.0935 23.4835 20.1416 25 24.5521 25C27.7999 25 29.2278 26.0964 29.7901 29.4444C29.9888 30.6277 30.0794 32.0922 30.1039 33.8889C30.1088 34.246 30.1111 34.6162 30.1111 35M19.0062 16.1111H30.1049M21.5447 29.4444H19.3223M19.3223 29.4444C19.8861 26.0964 21.316 25 24.559 25C28.9629 25 30.017 23.4835 30.1049 16.1111M19.3223 29.4444C19.0834 30.8629 19 32.6854 19 35M30.1049 16.1111C30.1091 15.7546 30.1111 15.3844 30.1111 15" stroke="white" stroke-width="2" stroke-linecap="round"/>
<path opacity="0.4" d="M29.7901 29.4446H25.1073M23.4444 33.889H30.1039M19.2991 20.5557H23.4444" stroke="white" stroke-width="2" stroke-linecap="round"/>
</g>
<defs>
<clipPath id="clip0_14_26">
<rect width="49" height="49" fill="white"/>
</clipPath>
</defs>
</svg>
