<?xml version="1.0" encoding="utf-8"?>
<!-- Generator: Adobe Illustrator 27.0.0, SVG Export Plug-In . SVG Version: 6.00 Build 0)  -->
<svg version="1.1" id="Layer_1" xmlns="http://www.w3.org/2000/svg" xmlns:xlink="http://www.w3.org/1999/xlink" x="0px" y="0px"
	 viewBox="0 0 448 512" style="enable-background:new 0 0 448 512;" xml:space="preserve">
<style type="text/css">
	.st0{fill:#FFFFFF;}
</style>
<path class="st0" d="M338,222.8c-22.2,0.1-43.9-6.9-61.9-19.8v90.2c0,45.3-36.7,82-82.1,82c-45.3,0-82-36.7-82-82s36.7-82,82.1-82
	c3.8,0,7.5,0.3,11.2,0.8v45.4c-19.8-6.3-41,4.8-47.2,24.6s4.8,41,24.6,47.2c19.8,6.3,41-4.8,47.2-24.6c1.2-3.6,1.7-7.5,1.7-11.3
	V116.9h44.4c0,3.7,0.3,7.5,1,11.2l0,0c3.1,16.6,13,31.3,27.2,40.5c10,6.6,21.8,10.1,33.8,10.1L338,222.8L338,222.8z"/>
</svg>
